<?xml version="1.0" standalone="no"?>
<!DOCTYPE svg PUBLIC "-//W3C//DTD SVG 20010904//EN"
 "http://www.w3.org/TR/2001/REC-SVG-20010904/DTD/svg10.dtd">
<svg version="1.0" xmlns="http://www.w3.org/2000/svg"
 width="1116.000000pt" height="547.000000pt" viewBox="0 0 1116.000000 547.000000"
 preserveAspectRatio="xMidYMid meet">

<g transform="translate(0.000000,547.000000) scale(0.100000,-0.100000)"
fill="#000000" stroke="none">
<path d="M5597 4804 c-10 -11 -9 -44 2 -44 15 0 19 13 12 33 -4 10 -10 15 -14
11z"/>
<path d="M6980 4760 c0 -5 7 -10 15 -10 8 0 15 5 15 10 0 6 -7 10 -15 10 -8 0
-15 -4 -15 -10z"/>
<path d="M6893 4726 c-15 -13 -25 -27 -21 -31 8 -9 78 33 78 46 0 17 -29 9
-57 -15z"/>
<path d="M6975 4709 c-89 -44 -134 -116 -135 -212 0 -65 27 -153 65 -207 23
-33 25 -42 17 -81 -7 -35 -9 -123 -3 -160 1 -4 22 -11 49 -16 46 -8 47 -9 47
-44 0 -20 6 -43 14 -52 19 -24 68 -22 83 3 16 25 19 25 64 -5 87 -59 204 2
204 106 0 39 -30 85 -70 108 -28 16 -40 29 -40 45 0 12 -9 32 -20 44 l-21 22
26 34 c34 45 45 48 72 19 45 -47 123 -17 123 47 0 21 9 38 27 54 38 33 38 89
-1 122 -34 30 -75 31 -110 3 -24 -19 -26 -19 -26 -2 0 33 -57 118 -97 146 -22
15 -55 32 -74 37 -57 17 -150 11 -194 -11z m53 -66 c-37 -76 -50 -155 -46
-275 3 -88 1 -98 -14 -98 -21 0 -61 58 -83 119 -24 68 -20 168 8 215 28 46
100 96 137 96 l27 0 -29 -57z m128 32 c40 -61 21 -227 -40 -361 -28 -60 -41
-69 -78 -55 -24 9 -27 17 -33 77 -22 203 84 441 151 339z m117 -57 c36 -48 51
-100 34 -113 -28 -21 -39 -55 -28 -87 9 -26 7 -35 -19 -73 -16 -23 -43 -54
-60 -69 -48 -40 -112 -50 -81 -12 6 7 26 51 43 97 29 76 32 95 32 200 l1 117
27 -14 c15 -8 38 -29 51 -46z m200 -120 c15 -23 -1 -68 -27 -78 -29 -11 -40
-26 -26 -35 16 -10 12 -33 -10 -55 -25 -25 -35 -25 -61 1 -13 13 -18 27 -14
40 5 15 1 25 -14 35 -36 26 -22 84 20 84 9 0 23 7 30 16 31 37 76 34 102 -8z
m-420 -270 c74 -11 77 -13 77 -38 0 -15 -2 -29 -5 -31 -2 -3 -43 1 -90 10 -83
14 -85 15 -85 43 0 32 -1 32 103 16z m177 -8 c11 -11 20 -33 20 -49 0 -24 5
-31 30 -36 41 -9 70 -49 70 -97 0 -85 -101 -130 -167 -74 -35 29 -66 27 -92
-5 -18 -22 -21 -23 -36 -8 -13 13 -14 20 -4 43 8 18 19 26 32 24 15 -2 24 10
42 62 13 36 26 82 29 102 6 33 26 57 49 58 4 0 16 -9 27 -20z m-187 -80 c63
-12 68 -14 62 -34 -4 -11 -9 -31 -12 -44 -4 -15 -11 -21 -22 -18 -9 3 -41 10
-72 16 l-56 11 -1 45 c0 37 3 44 16 40 10 -2 48 -10 85 -16z"/>
<path d="M5590 4701 c0 -22 16 -36 24 -22 8 12 -3 41 -15 41 -5 0 -9 -9 -9
-19z"/>
<path d="M876 4694 c-23 -13 -41 -14 -93 -7 -36 6 -66 6 -69 1 -3 -5 14 -39
37 -75 36 -55 44 -77 50 -134 9 -81 34 -141 80 -194 37 -41 138 -95 180 -95
18 0 29 -8 37 -25 6 -14 15 -25 20 -25 16 0 22 13 11 26 -7 9 -5 14 11 19 15
5 26 0 41 -19 26 -33 58 -51 70 -39 5 5 -3 18 -21 31 -38 29 -38 38 1 46 45 9
124 90 139 144 7 23 10 45 7 48 -3 4 -20 1 -38 -5 -33 -11 -119 -15 -119 -5 0
3 14 19 30 36 43 43 40 68 -7 69 -73 1 -103 19 -124 73 -20 53 -67 109 -111
132 -35 18 -96 17 -132 -2z m145 -37 c35 -23 71 -84 102 -176 10 -29 34 -69
52 -89 32 -35 36 -37 99 -37 38 0 66 -4 66 -10 0 -6 -11 -27 -25 -47 -42 -62
-145 -98 -241 -83 l-48 7 51 17 c57 19 103 47 103 61 0 5 -15 16 -32 24 -18 8
-63 41 -101 75 -81 72 -126 90 -179 68 l-36 -15 -6 30 c-13 65 14 153 56 182
33 23 99 20 139 -7z m-191 -6 c0 -6 -4 -13 -10 -16 -5 -3 -10 -15 -10 -26 0
-37 -16 -23 -48 44 -2 4 13 7 32 7 20 0 36 -4 36 -9z m398 -187 l27 -6 -28
-24 c-15 -13 -32 -24 -36 -24 -4 0 -15 16 -24 35 l-17 35 25 -5 c14 -3 37 -8
53 -11z m-242 -43 c21 -16 53 -43 69 -61 17 -17 43 -39 59 -47 l30 -16 -38
-19 c-21 -11 -62 -22 -90 -25 -46 -5 -56 -2 -82 20 l-29 26 45 -10 c48 -11
110 -4 110 11 0 6 -26 10 -57 10 -70 0 -159 35 -131 51 12 7 28 5 52 -5 20 -8
38 -11 41 -6 9 15 -38 40 -76 40 -42 0 -54 16 -31 43 24 27 82 22 128 -12z"/>
<path d="M912 4618 c-15 -15 -15 -61 0 -76 7 -7 24 -12 38 -12 32 0 50 17 50
46 0 44 -58 72 -88 42z m58 -53 c-7 -8 -20 -15 -28 -15 -13 0 -12 3 4 15 25
19 40 19 24 0z"/>
<path d="M3061 4684 c-76 -63 5 -179 92 -132 31 16 46 39 47 70 0 40 -9 57
-41 73 -40 21 -63 19 -98 -11z m107 -31 c14 -22 14 -28 1 -51 -18 -32 -50 -44
-80 -28 -34 17 -35 85 -1 102 31 15 60 7 80 -23z"/>
<path d="M10424 4665 c-8 -19 2 -45 16 -45 5 0 10 14 10 30 0 31 -16 41 -26
15z"/>
<path d="M5597 4654 c-12 -13 -8 -106 5 -102 12 4 18 62 8 91 -3 10 -9 15 -13
11z"/>
<path d="M10367 4654 c-9 -9 9 -40 27 -47 9 -4 18 -2 20 2 7 10 -38 53 -47 45z"/>
<path d="M10477 4642 c-18 -20 -23 -42 -9 -42 18 0 46 40 36 50 -7 7 -16 4
-27 -8z"/>
<path d="M5830 4632 c-18 -15 -22 -24 -14 -32 7 -7 15 -5 28 9 27 30 16 47
-14 23z"/>
<path d="M7928 4626 c-23 -15 -44 -22 -60 -19 -58 11 -133 -62 -119 -115 7
-25 12 -27 67 -29 113 -5 260 -67 340 -144 l30 -29 23 23 c30 33 37 86 17 126
-10 18 -24 35 -32 38 -7 3 -14 17 -14 31 0 39 -45 107 -84 126 -51 24 -126 21
-168 -8z m171 -25 c27 -20 66 -95 59 -117 -1 -5 10 -21 25 -36 19 -19 27 -37
27 -61 0 -55 -16 -60 -68 -20 -91 69 -225 122 -326 127 -34 2 -40 6 -38 22 2
10 15 30 29 43 21 18 34 22 64 18 27 -4 42 0 51 11 37 45 123 51 177 13z"/>
<path d="M2406 4633 c-11 -11 -6 -23 9 -23 8 0 15 4 15 9 0 13 -16 22 -24 14z"/>
<path d="M5342 4628 c6 -16 36 -34 44 -25 9 9 -15 37 -33 37 -8 0 -13 -5 -11
-12z"/>
<path d="M2443 4599 c-35 -16 -63 -35 -63 -43 0 -8 13 -50 29 -94 l29 -79 -66
-23 c-114 -39 -110 -29 -55 -130 l47 -89 -26 -28 c-15 -15 -30 -40 -33 -55 -5
-19 -15 -29 -36 -33 -40 -9 -79 -58 -79 -100 0 -65 73 -119 131 -96 17 6 30 5
43 -4 13 -10 25 -11 43 -4 22 8 31 4 64 -26 47 -42 102 -47 154 -15 30 19 65
79 65 113 0 7 13 23 28 34 35 26 62 80 62 123 0 17 9 43 20 57 38 48 17 129
-39 153 -25 10 -33 22 -46 69 -9 31 -29 99 -45 151 l-29 96 -56 27 c-30 15
-61 27 -68 26 -6 0 -40 -14 -74 -30z m111 -153 c21 -76 35 -144 33 -151 -3 -6
-35 -20 -72 -30 -37 -10 -69 -23 -71 -29 -2 -6 7 -67 20 -136 13 -69 23 -126
22 -127 -1 -1 -41 72 -90 164 -48 91 -84 169 -79 173 4 4 38 17 75 30 37 12
70 25 73 30 3 5 -8 43 -25 86 -16 43 -30 84 -30 90 0 13 92 54 101 45 4 -3 23
-68 43 -145z m29 127 c18 -10 33 -19 35 -20 5 -2 90 -287 87 -291 -1 -2 -21 4
-43 13 -39 16 -41 19 -62 98 -12 45 -30 112 -40 150 -10 37 -16 67 -13 67 3 0
19 -8 36 -17z m70 -320 c32 -10 17 -19 -48 -32 -61 -12 -126 -8 -111 7 13 12
111 40 126 35 8 -3 23 -8 33 -10z m120 -30 c27 -31 30 -66 8 -94 -11 -14 -23
-48 -26 -75 -6 -56 -23 -84 -65 -116 -22 -16 -30 -30 -30 -54 0 -41 -31 -79
-75 -94 -48 -16 -106 12 -120 58 -9 33 -45 46 -45 17 0 -8 -2 -15 -4 -15 -2 0
-11 -3 -19 -6 -8 -3 -22 3 -32 12 -14 14 -21 15 -36 6 -28 -18 -55 -14 -83 11
-52 47 -25 127 43 127 25 0 30 5 35 33 3 19 17 44 30 56 l24 22 45 -83 c24
-46 57 -107 71 -135 l26 -53 50 0 c41 0 50 3 50 18 0 17 -42 215 -60 281 -5
19 -8 37 -6 39 3 2 24 6 48 9 24 3 48 10 55 15 7 6 13 4 15 -4 4 -10 9 -8 22
5 10 9 24 17 32 17 8 0 14 5 14 10 0 15 15 12 33 -7z m-243 -72 c16 -64 60
-259 60 -270 0 -6 -11 -11 -25 -11 -14 0 -25 2 -25 4 0 3 -16 77 -35 165 -19
88 -35 162 -35 165 0 3 11 0 25 -6 16 -7 28 -24 35 -47z"/>
<path d="M2490 3836 c0 -8 9 -18 21 -21 29 -10 31 -3 3 18 -20 15 -24 15 -24
3z"/>
<path d="M3920 4604 c-85 -13 -160 -26 -167 -29 -9 -3 -8 -14 3 -42 15 -38 15
-39 -25 -108 l-40 -70 21 -72 21 -72 130 -57 c108 -48 126 -59 108 -66 -36
-13 -25 -60 16 -70 l32 -8 -17 -29 c-16 -28 -15 -31 2 -50 l19 -20 28 20 28
20 9 -33 c6 -26 14 -34 35 -36 23 -3 28 1 33 28 8 37 18 45 34 25 16 -19 44
-19 61 1 10 13 10 20 -5 45 l-17 29 29 6 c53 11 48 74 -5 74 -27 0 -28 3 -6
36 13 21 14 30 5 45 -9 15 -9 23 0 39 10 16 20 18 55 13 33 -4 43 -2 43 8 0
21 -89 182 -163 297 -54 82 -71 102 -89 101 -13 -1 -93 -12 -178 -25z m248
-96 c33 -51 59 -94 57 -96 -1 -1 -94 31 -206 72 -214 78 -213 77 -104 92 28 3
70 10 95 14 97 16 92 19 158 -82z m-34 -103 c-3 -22 -99 -165 -110 -165 -19 0
-18 3 17 66 17 30 30 56 28 57 -15 10 -63 27 -77 27 -10 0 -29 -21 -45 -50
-16 -28 -31 -50 -35 -50 -16 0 -182 65 -182 72 0 4 21 42 46 86 l46 79 157
-57 c86 -32 156 -61 155 -65z m150 -91 c15 -31 26 -58 24 -59 -9 -8 -50 18
-58 37 -6 13 -19 37 -29 53 -26 41 -25 46 7 34 20 -7 36 -26 56 -65z m-77 -5
l36 -65 -24 -37 c-27 -42 -48 -54 -54 -32 -3 8 -7 22 -10 30 -2 9 -16 15 -35
15 -24 0 -30 -4 -30 -21 0 -18 -2 -19 -15 -9 -8 7 -15 18 -15 26 0 19 93 164
103 161 5 -1 25 -32 44 -68z m-183 42 c8 -12 -35 -91 -48 -91 -6 0 -17 4 -24
9 -11 7 -9 17 12 50 25 39 48 52 60 32z m0 -143 c17 -9 17 -11 -5 -22 -15 -7
-24 -20 -23 -34 0 -12 -2 -22 -5 -22 -3 0 -55 22 -116 48 -113 49 -124 59
-140 124 l-7 27 139 -55 c76 -31 146 -61 157 -66z m102 -35 c-10 -10 -19 5
-10 18 6 11 8 11 12 0 2 -7 1 -15 -2 -18z m-85 -26 c-1 -12 -15 -9 -19 4 -3 6
1 10 8 8 6 -3 11 -8 11 -12z m189 5 c0 -13 -12 -22 -22 -16 -10 6 -1 24 13 24
5 0 9 -4 9 -8z m-43 -34 c31 -29 32 -92 1 -125 -29 -31 -92 -32 -125 -1 -31
29 -32 92 -1 125 29 31 92 32 125 1z m-177 -68 c0 -5 -7 -10 -15 -10 -8 0 -15
5 -15 10 0 6 7 10 15 10 8 0 15 -4 15 -10z m255 0 c-3 -5 -10 -10 -16 -10 -5
0 -9 5 -9 10 0 6 7 10 16 10 8 0 12 -4 9 -10z m-224 -93 c-13 -13 -26 -3 -16
12 3 6 11 8 17 5 6 -4 6 -10 -1 -17z m186 -3 c-9 -9 -28 6 -21 18 4 6 10 6 17
-1 6 -6 8 -13 4 -17z m-93 -29 c-4 -8 -10 -12 -15 -9 -14 8 -10 24 6 24 9 0
12 -6 9 -15z"/>
<path d="M3811 4457 c-11 -19 -21 -37 -21 -41 0 -10 111 -56 121 -50 5 3 18
23 29 44 l20 40 -37 15 c-74 31 -88 30 -112 -8z m102 -17 c5 -4 4 -17 -2 -28
-10 -20 -13 -20 -50 -5 -35 14 -38 18 -28 34 9 15 19 18 42 13 17 -3 34 -10
38 -14z"/>
<path d="M4099 4118 c-35 -12 -51 -49 -38 -87 20 -57 94 -57 124 0 26 48 -31
106 -86 87z m58 -44 c12 -19 11 -24 -6 -45 -16 -19 -23 -22 -37 -13 -34 20
-40 41 -19 64 22 25 42 23 62 -6z"/>
<path d="M2338 4604 c-32 -17 -32 -15 -16 -66 6 -21 16 -37 22 -35 11 5 12 7
1 48 -5 21 -2 27 20 37 14 7 23 17 20 22 -8 13 -14 12 -47 -6z"/>
<path d="M10345 4592 c-13 -13 -2 -22 26 -22 19 0 29 4 27 12 -4 12 -44 19
-53 10z"/>
<path d="M10475 4592 c-9 -10 7 -22 30 -22 36 0 39 17 5 22 -17 3 -32 2 -35 0z"/>
<path d="M4662 4565 c2 -14 8 -26 13 -26 6 0 11 12 13 26 2 18 -1 25 -13 25
-12 0 -15 -7 -13 -25z"/>
<path d="M5400 4577 c0 -16 62 -77 78 -77 21 0 13 15 -26 53 -40 39 -52 45
-52 24z"/>
<path d="M5752 4557 c-30 -31 -41 -57 -24 -57 10 0 82 73 82 83 0 17 -29 4
-58 -26z"/>
<path d="M4600 4562 c0 -14 39 -46 47 -39 3 4 -2 16 -12 27 -19 21 -35 26 -35
12z"/>
<path d="M4715 4550 c-10 -11 -15 -23 -12 -27 8 -7 47 25 47 39 0 14 -16 9
-35 -12z"/>
<path d="M1416 4551 c-4 -5 10 -19 31 -32 35 -22 37 -22 65 -6 27 16 32 16 60
1 29 -15 34 -15 60 0 26 16 30 16 56 0 27 -15 31 -15 61 0 28 15 34 15 53 1
13 -8 28 -15 35 -15 24 0 13 18 -23 40 -34 22 -36 22 -68 5 -31 -17 -34 -17
-59 -1 -24 16 -28 16 -57 1 -29 -15 -33 -15 -57 1 -25 16 -28 16 -59 -1 -30
-16 -34 -16 -55 -1 -27 18 -36 20 -43 7z"/>
<path d="M10376 4541 c-12 -13 -14 -21 -6 -26 13 -8 52 24 44 36 -8 14 -19 11
-38 -10z"/>
<path d="M10460 4554 c0 -16 23 -44 35 -44 20 0 19 13 -3 33 -19 17 -32 22
-32 11z"/>
<path d="M8989 4444 c-44 -57 -84 -104 -88 -104 -5 0 -96 34 -204 75 -108 41
-199 75 -202 75 -18 0 4 -35 66 -102 l71 -78 -127 0 c-96 0 -126 -3 -123 -12
3 -7 92 -46 199 -87 107 -40 195 -75 197 -76 1 -1 -13 -53 -32 -116 -20 -63
-31 -118 -26 -123 6 -6 168 134 366 320 30 28 30 31 23 89 -14 114 -16 109 49
129 110 35 134 57 75 69 -16 4 -58 15 -96 26 l-67 20 -81 -105z m161 55 c29
-6 48 -15 43 -19 -11 -10 -87 -34 -93 -29 -7 6 -12 59 -6 59 3 0 28 -5 56 -11z
m-98 -101 c-2 -51 -8 -97 -12 -102 -13 -13 -102 24 -96 41 4 10 101 142 112
152 0 1 -2 -41 -4 -91z m-415 12 c43 -17 87 -35 98 -40 11 -5 47 -18 80 -30
33 -12 99 -36 148 -53 80 -29 108 -47 73 -47 -17 0 -100 27 -231 75 -55 20
-122 44 -150 52 -42 13 -126 73 -103 73 4 0 42 -14 85 -30z m446 -102 c3 -21
2 -38 -4 -38 -5 0 -9 19 -9 42 0 49 5 47 13 -4z m-267 -25 c90 -32 161 -60
158 -62 -4 -4 -163 -61 -170 -61 -1 0 -39 41 -84 90 -45 50 -79 90 -74 90 4 0
81 -26 170 -57z m-151 -13 c8 -12 -131 -12 -160 0 -13 6 9 9 67 9 48 1 90 -3
93 -9z m58 -58 c9 -8 17 -19 17 -23 0 -9 -108 28 -123 41 -17 15 88 -3 106
-18z m316 -5 c-2 -2 -64 -59 -138 -126 -73 -67 -135 -120 -137 -119 -3 4 42
167 47 172 5 4 212 74 223 75 5 1 7 -1 5 -2z"/>
<path d="M10424 4526 c-6 -26 1 -46 17 -46 12 0 12 57 -1 65 -5 3 -12 -5 -16
-19z"/>
<path d="M9769 4503 c-12 -32 -3 -96 13 -91 12 4 17 107 6 114 -5 3 -13 -7
-19 -23z"/>
<path d="M9835 4505 c-32 -31 -31 -51 1 -98 21 -31 24 -45 19 -76 -4 -25 -1
-51 9 -75 l15 -37 -76 -34 c-41 -19 -79 -35 -83 -35 -4 0 -24 -12 -45 -26 -36
-24 -40 -25 -106 -15 -98 16 -108 14 -121 -14 -17 -37 5 -54 83 -67 l65 -10
-4 -37 c-1 -20 -17 -64 -35 -98 -36 -69 -32 -95 15 -101 20 -2 30 5 48 33 12
19 26 33 31 29 9 -5 -10 -50 -42 -96 -26 -36 -25 -84 1 -98 40 -21 54 -9 120
114 12 22 24 29 50 31 33 2 240 85 268 107 7 6 56 10 112 9 115 -2 140 7 140
49 0 39 -23 50 -109 50 -41 0 -71 4 -71 10 0 6 12 10 26 10 38 0 64 18 64 43
0 33 -19 47 -61 47 -27 0 -42 6 -53 21 -13 20 -12 23 19 50 18 16 44 29 58 29
63 0 92 33 85 96 -3 27 -7 29 -50 32 -41 3 -49 7 -71 41 -18 27 -40 44 -71 56
-30 12 -46 24 -46 35 0 9 -9 25 -20 35 -17 15 -24 16 -45 7 -17 -8 -33 -8 -51
-2 -36 14 -42 13 -69 -15z m89 -42 c24 -35 28 -36 84 -37 67 -1 95 -18 119
-73 8 -21 20 -33 32 -33 10 0 21 -9 24 -20 3 -12 14 -20 27 -20 40 0 14 -25
-31 -30 -33 -4 -57 -15 -87 -41 -23 -20 -42 -39 -42 -43 0 -4 12 -23 26 -42
23 -30 32 -34 71 -34 58 0 54 -24 -5 -28 -36 -3 -41 -6 -47 -34 -4 -16 -3 -34
2 -39 4 -4 46 -9 93 -11 68 -2 85 -6 85 -18 0 -12 -19 -15 -108 -17 -76 -1
-114 -5 -130 -16 -52 -34 -237 -107 -271 -107 -34 0 -37 -3 -77 -75 -38 -70
-59 -89 -74 -65 -3 6 13 44 36 86 l42 76 -27 27 c-30 29 -31 28 -69 -40 -14
-25 -21 -29 -30 -20 -9 9 -4 25 20 69 19 35 32 77 35 109 l5 52 -56 11 c-94
19 -102 22 -98 34 3 6 9 10 14 9 52 -11 170 -20 176 -14 4 4 27 -12 51 -36 50
-50 72 -53 116 -17 42 36 35 69 -18 90 -1 1 2 12 7 26 5 14 26 32 50 43 23 10
41 21 41 25 0 4 -7 22 -16 39 -12 23 -15 46 -10 77 5 37 1 52 -19 84 -28 44
-31 60 -13 78 21 21 47 13 72 -25z m69 23 c7 -17 -18 -40 -33 -31 -5 3 -10 15
-10 26 0 23 35 27 43 5z m237 -166 c0 -5 -7 -10 -16 -10 -8 0 -12 5 -9 10 3 6
10 10 16 10 5 0 9 -4 9 -10z m-447 -195 c-4 -19 0 -27 21 -36 33 -16 30 -40
-7 -53 -23 -8 -31 -6 -57 19 -16 16 -30 35 -30 42 0 9 44 40 76 53 1 0 -1 -11
-3 -25z"/>
<path d="M9970 4371 c-24 -45 -5 -81 42 -81 18 0 33 8 44 25 15 23 15 27 0 50
-21 31 -70 35 -86 6z m54 -7 c18 -7 22 -44 4 -44 -6 0 -8 3 -5 7 4 3 0 15 -10
25 -17 19 -15 22 11 12z"/>
<path d="M9946 4251 c-6 -8 5 -20 31 -35 23 -13 22 12 -2 28 -13 9 -26 12 -29
7z"/>
<path d="M9916 4134 c-23 -22 -21 -96 2 -117 26 -24 33 -22 75 21 44 45 46 63
11 91 -32 25 -67 27 -88 5z m77 -26 c15 -12 13 -16 -13 -45 -16 -18 -34 -33
-40 -33 -5 0 -10 20 -10 45 0 40 2 45 23 45 13 0 31 -6 40 -12z"/>
<path d="M9658 3989 c-33 -19 -15 -69 24 -69 10 0 27 9 38 20 39 39 -12 79
-62 49z m47 -29 c-3 -5 -15 -10 -26 -10 -11 0 -17 5 -14 10 3 6 15 10 26 10
11 0 17 -4 14 -10z"/>
<path d="M4580 4494 c0 -11 8 -14 27 -12 39 4 42 28 4 28 -21 0 -31 -5 -31
-16z"/>
<path d="M4715 4501 c-7 -13 17 -24 40 -19 9 1 16 8 16 13 0 14 -48 19 -56 6z"/>
<path d="M5547 4426 l-48 -64 6 -168 c3 -93 8 -197 11 -231 4 -52 2 -63 -11
-63 -9 0 -15 9 -15 25 0 21 -5 25 -30 25 -28 0 -31 -4 -51 -70 -21 -69 -20
-90 6 -90 7 0 16 -8 18 -17 4 -17 5 -17 6 0 1 14 10 17 51 17 l50 0 0 -89 c0
-94 7 -112 51 -126 27 -9 69 20 70 48 3 75 6 134 7 150 2 14 12 17 65 17 34 0
67 4 73 8 9 5 6 26 -10 77 -20 65 -24 70 -50 70 -21 0 -30 -5 -32 -18 -1 -11
-5 -21 -8 -25 -19 -18 -22 36 -13 240 l10 226 -48 61 c-26 34 -51 61 -54 61
-3 0 -28 -29 -54 -64z m113 -54 c0 -17 -62 -25 -94 -12 -30 11 -30 13 17 67
l19 21 29 -33 c16 -18 29 -37 29 -43z m-92 -38 c22 -6 22 -7 22 -220 0 -205
-1 -214 -19 -214 -11 0 -22 3 -24 8 -9 14 -19 432 -10 432 4 0 18 -3 31 -6z
m107 -56 c-3 -35 -8 -134 -11 -221 -6 -154 -7 -158 -28 -155 -21 3 -21 6 -21
213 l0 209 25 7 c14 4 28 7 32 8 4 1 5 -27 3 -61z m-139 -398 c38 -3 99 -4
137 -2 58 3 67 6 67 23 0 35 17 20 29 -25 6 -25 11 -47 11 -50 0 -3 -81 -6
-180 -6 l-180 0 6 28 c4 15 11 38 17 52 9 24 10 24 17 5 6 -17 19 -21 76 -25z
m104 -167 c0 -100 -25 -141 -60 -98 -9 11 -16 121 -11 175 1 4 17 4 36 2 l35
-4 0 -75z"/>
<path d="M4615 4450 c-10 -11 -15 -23 -12 -27 8 -7 47 25 47 39 0 14 -16 9
-35 -12z"/>
<path d="M4700 4463 c1 -14 27 -43 39 -43 16 0 13 15 -7 33 -20 18 -32 22 -32
10z"/>
<path d="M4664 4447 c-7 -20 -2 -47 11 -50 14 -3 19 43 6 56 -7 7 -12 6 -17
-6z"/>
<path d="M5200 4381 c-7 -13 -7 -22 0 -26 5 -3 10 -1 10 4 0 6 7 11 15 11 8 0
15 7 15 15 0 22 -27 19 -40 -4z"/>
<path d="M5270 4385 c0 -9 9 -15 25 -15 16 0 25 6 25 15 0 9 -9 15 -25 15 -16
0 -25 -6 -25 -15z"/>
<path d="M5335 4390 c-3 -5 0 -13 8 -16 23 -8 92 0 92 11 0 14 -92 19 -100 5z"/>
<path d="M5770 4385 c0 -11 12 -15 45 -15 33 0 45 4 45 15 0 11 -12 15 -45 15
-33 0 -45 -4 -45 -15z"/>
<path d="M5887 4394 c-16 -16 -5 -25 26 -22 17 2 31 8 30 13 -3 12 -46 19 -56
9z"/>
<path d="M9790 4376 c0 -9 7 -16 16 -16 9 0 14 5 12 12 -6 18 -28 21 -28 4z"/>
<path d="M7860 4235 l-45 -46 3 -202 c3 -156 0 -219 -12 -277 -16 -76 -70
-200 -87 -200 -5 0 -9 -6 -9 -14 0 -8 -28 -40 -62 -71 -113 -105 -281 -167
-495 -185 -181 -15 -320 -59 -438 -140 -37 -25 -49 -29 -60 -20 -9 8 -13 21
-9 36 7 27 -13 34 -22 9 -9 -23 -24 -18 -24 8 0 13 -11 34 -25 47 l-25 23 26
35 c24 31 26 40 20 94 -3 33 -8 63 -11 68 -3 4 -34 11 -70 15 -36 3 -65 11
-65 17 0 6 14 28 32 50 l32 40 -13 62 c-7 33 -14 62 -16 64 -2 2 -35 9 -75 15
-49 7 -74 16 -81 28 -17 33 -60 -3 -109 -91 -33 -58 -49 -78 -60 -74 -8 3 -40
8 -71 11 -63 6 -169 -19 -169 -41 0 -25 58 -93 103 -122 36 -23 45 -33 41 -50
-3 -12 -1 -40 5 -62 11 -40 13 -41 87 -63 56 -17 74 -26 72 -38 -3 -14 -42
-16 -349 -19 l-347 -2 -4 59 c-8 119 -106 192 -223 169 -22 -5 -63 -9 -92 -11
-59 -3 -95 -29 -115 -83 -10 -28 -31 -43 -59 -44 -4 0 -10 12 -14 27 -3 15
-15 39 -26 54 -13 19 -17 36 -13 58 5 25 1 36 -24 61 -37 36 -70 38 -109 7
-25 -21 -80 -27 -69 -8 3 4 -13 25 -35 47 l-40 39 -18 -24 c-11 -14 -25 -22
-37 -19 -28 5 -30 38 -3 59 l24 18 -41 41 -41 41 -32 -27 c-24 -20 -35 -24
-44 -15 -17 17 -62 13 -80 -7 -20 -21 -22 -63 -6 -79 9 -9 5 -20 -15 -44 l-27
-32 40 -40 40 -41 18 23 c12 14 24 20 35 16 21 -8 32 -35 15 -39 -104 -30
-158 -74 -177 -146 -14 -50 -5 -100 26 -146 13 -19 24 -36 24 -37 0 -1 -12 -3
-26 -3 -14 -1 -38 -13 -52 -26 -15 -14 -42 -31 -60 -38 -34 -13 -62 -54 -62
-89 0 -11 14 -36 31 -56 28 -32 30 -39 20 -61 -18 -40 -13 -78 12 -102 28 -27
66 -28 98 -3 35 27 97 36 118 17 9 -8 33 -22 53 -30 l36 -15 1 -134 2 -134
-80 -7 c-164 -13 -310 -79 -467 -209 -205 -170 -336 -228 -514 -228 -177 0
-293 64 -494 272 -69 72 -126 135 -126 140 0 5 -33 9 -74 9 l-74 0 -20 -87
c-11 -49 -35 -155 -53 -236 l-32 -148 49 -50 c27 -28 77 -73 110 -101 52 -42
62 -56 67 -88 3 -21 16 -64 30 -94 25 -53 25 -56 6 -56 -10 0 -19 -5 -19 -11
0 -7 9 -9 23 -5 18 4 27 -1 41 -25 10 -17 38 -56 63 -86 41 -50 44 -57 34 -85
-15 -44 -14 -103 4 -146 15 -34 15 -38 -1 -49 -25 -18 -31 -16 -38 11 -3 13
-28 49 -56 79 -68 75 -144 108 -262 115 -85 5 -88 6 -94 31 -31 147 -111 219
-249 224 -56 2 -60 0 -63 -21 -5 -33 24 -119 55 -164 16 -24 47 -48 84 -67
l58 -29 -122 -41 c-128 -42 -205 -53 -272 -39 -50 11 -108 51 -123 83 -11 25
-11 25 32 25 75 0 133 68 105 123 -19 34 -41 46 -85 47 -36 0 -47 -5 -73 -35
-17 -20 -31 -45 -31 -55 0 -11 -5 -20 -10 -20 -6 0 -48 37 -94 82 -98 98 -167
209 -148 239 17 28 15 64 -8 101 -15 26 -18 43 -13 88 6 62 -7 98 -50 138 -78
73 -218 29 -247 -76 -21 -80 38 -175 117 -188 32 -5 43 -13 58 -41 22 -40 48
-56 87 -55 15 0 28 -3 28 -7 0 -4 15 -33 34 -64 19 -31 34 -57 33 -57 -1 0
-24 7 -52 15 -65 20 -137 6 -202 -39 -67 -46 -74 -62 -41 -87 14 -11 37 -28
50 -39 l23 -19 -22 6 c-14 3 -23 1 -23 -6 0 -7 16 -11 37 -11 21 1 64 -2 96
-6 67 -8 131 12 187 57 l34 29 31 -29 c16 -15 45 -38 63 -50 18 -13 38 -37 46
-55 19 -46 90 -102 146 -117 l48 -12 -35 -29 c-41 -32 -40 -32 -73 -13 -32 19
-78 19 -113 0 -25 -13 -31 -12 -68 6 -64 34 -141 7 -168 -59 -7 -16 -27 -36
-47 -45 -72 -35 -94 -128 -44 -182 12 -13 21 -31 20 -41 -6 -53 2 -78 34 -110
28 -28 41 -34 77 -34 24 0 50 4 58 9 11 7 19 0 32 -30 25 -54 71 -81 132 -76
50 4 100 39 113 79 3 10 15 18 28 18 28 0 82 36 108 71 30 40 33 97 9 144
l-21 39 30 31 c41 43 60 95 60 168 l0 64 127 41 c180 59 210 64 310 61 76 -3
98 -9 155 -37 67 -33 117 -82 137 -135 13 -35 1 -40 -44 -21 -50 21 -86 11
-132 -37 -22 -22 -54 -47 -73 -57 -45 -22 -61 -63 -39 -101 12 -20 13 -34 6
-55 -20 -59 33 -145 99 -162 40 -10 91 5 123 36 16 17 34 30 40 30 48 0 106
70 99 120 -3 17 -2 30 2 30 3 0 18 -50 33 -112 l28 -112 -24 -24 c-13 -13 -41
-29 -62 -37 -49 -16 -55 -31 -18 -39 40 -9 95 -44 88 -56 -3 -6 0 -10 9 -10
15 0 56 -75 56 -103 0 -19 15 -23 25 -7 4 6 16 3 32 -10 35 -28 79 -26 234 11
145 35 181 56 200 117 9 33 4 65 -45 265 -31 125 -56 229 -56 231 0 3 33 21
74 40 88 42 142 97 126 126 -19 36 -50 44 -162 43 -58 -1 -116 -4 -127 -8 -19
-6 -21 -2 -21 30 0 45 -24 102 -56 136 -21 22 -24 32 -19 63 l7 36 62 0 c34 0
94 9 135 20 186 52 316 154 514 405 167 211 244 281 379 345 66 31 98 38 98
19 0 -6 -8 -33 -17 -60 -14 -38 -15 -56 -7 -87 10 -39 10 -39 -25 -52 -60 -21
-92 -51 -118 -107 -32 -70 -26 -129 20 -187 31 -39 95 -75 134 -76 15 0 29
-13 45 -42 15 -28 39 -52 68 -68 25 -14 45 -32 45 -40 0 -12 17 -16 79 -18 44
-2 83 1 89 7 6 6 2 20 -11 38 l-20 28 24 29 c14 15 28 42 31 58 5 25 9 28 27
22 12 -3 44 -9 71 -11 90 -7 149 50 152 147 l1 55 99 0 c92 0 98 -1 95 -20 -3
-19 -2 -18 18 3 30 31 45 23 43 -23 -5 -67 -90 -149 -150 -145 -16 1 -45 2
-65 1 l-38 -1 0 -50 0 -50 88 -1 c191 -1 227 -4 225 -16 -4 -18 14 -16 20 1 9
22 174 21 199 -1 17 -15 18 -15 18 1 0 15 12 17 98 16 53 -1 125 -1 160 -1
l62 1 0 50 0 50 -37 1 c-21 1 -54 1 -73 0 -64 -4 -150 91 -150 164 0 30 13 32
40 5 25 -25 33 -25 25 -1 -6 19 2 19 262 20 152 0 275 -5 285 -10 10 -5 18
-17 18 -25 0 -27 64 -82 103 -89 50 -10 105 19 130 69 11 21 29 41 41 46 29
11 48 35 50 63 1 22 5 24 41 20 49 -5 109 27 142 76 40 60 28 156 -26 205 -16
15 -21 31 -21 70 0 64 -27 124 -72 162 -24 20 -37 41 -42 66 -8 42 -49 83 -96
93 l-30 7 0 128 0 129 46 44 c36 35 64 51 127 72 116 39 242 43 470 16 208
-25 327 -26 429 -7 147 28 251 78 353 169 46 41 59 47 97 47 24 0 53 7 65 15
18 12 31 13 72 4 53 -11 91 -1 91 26 0 14 -77 85 -92 85 -4 0 -8 8 -8 19 0 10
-10 33 -23 52 l-23 34 22 77 c33 112 55 268 57 398 l2 113 -200 128 c-110 70
-202 128 -205 128 -3 1 -26 -19 -50 -44z m232 -101 c101 -64 185 -118 188
-121 2 -2 -12 -19 -30 -38 l-35 -34 -170 110 c-93 61 -177 114 -184 119 -12 7
-10 14 13 44 15 20 29 36 31 36 3 0 87 -52 187 -116z m-53 -109 c147 -94 171
-113 171 -135 0 -39 -28 -215 -52 -327 -21 -100 -22 -103 -58 -121 -28 -13
-45 -16 -69 -9 -18 4 -47 7 -64 5 -51 -5 -47 -34 12 -89 28 -26 51 -51 51 -57
0 -18 -74 -83 -140 -122 -84 -50 -198 -87 -313 -101 -74 -9 -130 -8 -300 7
-274 23 -390 10 -558 -60 -11 -5 -18 -1 -22 14 -6 24 28 53 118 98 91 45 189
72 305 83 135 12 209 25 290 51 174 55 309 163 373 299 55 117 62 160 62 386
0 148 3 199 11 195 7 -4 89 -56 183 -117z m241 -260 c-6 -54 -24 -147 -38
-205 -26 -101 -28 -105 -56 -108 -26 -3 -28 -1 -22 20 21 77 58 286 63 358 5
74 9 89 32 113 l26 28 3 -53 c2 -29 -2 -98 -8 -153z m-1905 -121 c82 -11 82
-11 10 -111 -36 -51 -65 -96 -65 -101 0 -12 21 -17 125 -32 44 -6 86 -13 93
-15 10 -4 -165 -204 -355 -405 -12 -13 8 32 110 248 5 12 8 24 5 27 -3 3 -45
17 -94 31 -49 14 -92 29 -96 32 -4 4 32 7 80 7 105 1 160 22 142 56 -14 26
-90 103 -114 116 -17 9 -15 15 25 87 36 62 48 76 64 72 11 -3 43 -8 70 -12z
m105 -82 c7 -28 4 -37 -32 -82 -26 -33 -46 -49 -55 -46 -8 3 -21 6 -29 6 -10
0 0 20 29 58 24 31 49 68 56 80 15 28 19 26 31 -16z m-1866 9 c15 -16 15 -19
1 -31 -21 -17 -19 -56 5 -80 24 -24 48 -25 77 -5 18 13 22 12 39 -6 18 -20 16
-21 -64 -101 -79 -80 -82 -81 -101 -64 -17 15 -18 20 -6 43 29 55 -23 107 -79
78 -21 -11 -27 -11 -42 6 -17 19 -16 21 15 53 33 34 33 34 11 46 -14 7 -20 19
-18 33 4 30 37 34 57 8 l17 -22 29 31 c34 35 37 36 59 11z m1432 -83 c-9 -12
-16 -35 -16 -50 0 -38 -13 -35 -50 12 -22 28 -28 41 -18 44 7 3 20 7 28 9 8 3
28 6 43 6 27 1 28 0 13 -21z m145 -20 c18 -34 2 -86 -31 -103 -27 -14 -33 -14
-60 0 -58 30 -62 92 -8 125 36 21 81 11 99 -22z m102 -99 c-5 -5 -31 -12 -58
-16 l-49 -6 22 28 c12 15 22 39 22 54 1 26 1 26 36 -12 21 -23 32 -43 27 -48z
m-1343 42 c17 -32 11 -60 -15 -77 -52 -34 -111 31 -70 76 23 26 71 26 85 1z
m3244 9 c71 -27 83 -176 12 -154 -62 19 -156 68 -156 81 0 8 15 30 34 49 35
35 64 42 110 24z m-155 -24 c0 -6 -4 -19 -8 -30 -6 -17 -9 -16 -39 9 -18 15
-30 30 -28 34 7 11 76 0 75 -13z m-3215 -21 c3 -8 1 -15 -4 -15 -19 0 -10 -15
23 -37 35 -24 77 -29 107 -13 16 8 21 4 38 -33 11 -23 22 -50 26 -60 4 -14 13
-16 46 -11 50 8 50 -3 -1 -38 l-39 -28 -192 0 -192 0 -28 -27 c-23 -22 -28
-35 -28 -76 0 -43 -2 -48 -17 -42 -10 4 -40 11 -67 15 -57 8 -88 37 -107 99
-17 57 -4 107 39 151 54 56 71 57 117 10 l39 -40 82 80 c71 69 86 80 117 80
22 0 37 -6 41 -15z m1750 -57 c6 -32 2 -41 -24 -72 -17 -19 -44 -38 -60 -41
-18 -4 -37 -18 -47 -36 -10 -16 -22 -29 -28 -29 -6 0 -26 -12 -44 -27 -25 -22
-34 -38 -38 -73 -4 -25 -11 -50 -17 -56 -6 -6 -36 -39 -66 -74 -30 -35 -67
-77 -81 -94 l-26 -30 -7 48 c-7 45 -6 51 26 85 75 82 129 140 184 200 33 36
85 92 116 125 31 34 66 74 78 89 12 15 23 27 25 25 1 -2 5 -20 9 -40z m-1158
11 c62 -30 103 -106 88 -164 -6 -23 -10 -25 -69 -25 -57 0 -64 2 -81 28 -9 15
-24 32 -32 38 -8 6 -12 16 -8 22 9 15 -12 92 -24 92 -17 0 -11 18 8 23 39 10
78 6 118 -14z m-149 -25 c21 -21 25 -32 20 -65 -4 -32 -2 -41 15 -50 29 -15
50 -72 39 -103 -12 -29 -48 -56 -76 -56 -12 0 -31 -13 -43 -30 -66 -89 -217
-10 -182 96 13 38 53 74 83 74 16 0 18 4 12 23 -17 46 -10 99 14 118 34 28 86
25 118 -7z m2856 -32 c82 -35 85 -38 52 -46 -32 -8 -92 19 -113 52 -8 12 -13
22 -10 22 2 0 34 -13 71 -28z m202 3 c36 -30 28 -41 -24 -29 -35 8 -38 11 -30
32 10 28 17 27 54 -3z m-2141 -11 c80 -20 89 -25 74 -47 -12 -16 -17 -16 -83
5 -38 12 -71 22 -71 22 -1 1 -5 12 -9 25 -6 21 -5 23 11 16 11 -4 45 -13 78
-21z m1880 -33 c16 -18 14 -21 -34 -64 -67 -60 -136 -99 -235 -133 -110 -37
-292 -44 -496 -18 -258 32 -449 21 -552 -33 -16 -8 -31 -12 -34 -9 -11 11 106
55 189 72 71 14 109 16 258 8 309 -15 463 -11 554 15 98 27 216 87 276 140 25
22 48 40 51 41 3 0 14 -8 23 -19z m-1506 -63 c5 -7 12 -23 16 -34 5 -16 2 -23
-14 -27 -33 -9 -23 -27 16 -27 19 0 44 -5 55 -10 23 -13 49 -61 49 -90 0 -31
-29 -76 -57 -89 -35 -16 -37 -14 -9 12 15 12 29 36 32 53 5 25 0 38 -23 64
-34 38 -71 42 -112 13 -14 -11 -36 -23 -49 -27 -29 -10 -46 -43 -43 -84 2 -30
0 -33 -21 -30 -18 2 -23 9 -21 28 1 14 -4 41 -12 60 -7 20 -11 48 -8 63 5 27
54 77 76 77 7 0 20 14 29 30 14 24 24 30 51 30 19 0 39 -6 45 -12z m-1548 -87
c0 -17 -6 -31 -16 -35 -9 -3 -85 -6 -170 -6 l-154 0 0 -395 0 -394 -30 -16
c-16 -8 -31 -15 -35 -15 -3 0 -5 129 -5 288 1 230 4 292 15 312 8 14 14 41 14
60 0 19 -6 46 -14 60 -19 34 -19 120 1 148 15 21 20 22 205 22 l189 0 0 -29z
m1185 2 c-7 -14 -20 -30 -27 -34 -7 -5 -195 -9 -417 -9 -380 0 -403 1 -396 18
4 9 10 25 12 35 5 16 34 17 424 17 l418 0 -14 -27z m413 -81 c13 -18 16 -51 4
-68 -4 -6 -18 -17 -30 -23 -19 -10 -22 -18 -18 -37 10 -36 -10 -64 -44 -64
-32 0 -54 28 -44 55 4 10 -2 24 -15 36 -43 40 -16 86 44 76 34 -6 47 5 23 19
-17 11 22 35 46 28 12 -3 27 -13 34 -22z m-1567 -21 c48 -50 94 -61 150 -36
21 10 44 24 51 32 33 40 65 43 499 43 231 0 419 -1 419 -3 0 -2 -13 -31 -30
-65 -29 -59 -29 -65 -20 -130 5 -37 10 -70 10 -74 0 -21 25 1 114 102 53 61
101 110 106 110 5 0 7 -14 3 -30 -4 -22 0 -36 12 -50 19 -21 60 -27 70 -10 12
20 25 9 25 -20 0 -20 9 -39 25 -54 l25 -23 0 -307 0 -306 -707 0 -706 0 -34
39 c-57 67 -132 77 -205 27 -34 -22 -35 -23 -57 -5 -12 10 -38 21 -57 25 l-34
6 0 384 0 384 151 0 151 0 39 -39z m-626 -1 c3 -6 30 -7 65 -3 56 5 60 4 89
-25 43 -43 44 -102 1 -142 -16 -15 -30 -34 -30 -42 0 -7 -7 -23 -15 -35 -14
-19 -32 -26 -115 -40 -19 -3 -41 -14 -48 -24 -19 -27 -58 -24 -78 6 -15 23
-15 27 2 53 24 35 19 59 -17 93 -16 15 -29 36 -29 48 0 29 35 61 65 61 18 0
28 7 35 24 12 32 61 49 75 26z m2195 -585 c0 -480 -2 -502 -45 -519 -28 -10
-1365 -7 -1365 3 0 6 4 12 9 15 14 9 21 80 11 116 -12 43 -45 78 -95 101 -39
17 -23 18 683 18 l722 1 0 323 0 324 25 13 c14 8 28 24 31 37 19 74 24 -20 24
-432z m-2030 316 c0 -33 -4 -62 -8 -65 -5 -3 -24 4 -43 16 -24 15 -30 22 -19
26 28 9 50 35 50 59 0 12 5 23 10 23 6 0 10 -26 10 -59z m2121 -170 c16 -16
30 -38 30 -48 1 -10 2 -22 3 -28 1 -5 22 -30 48 -55 51 -50 73 -108 62 -164
-5 -29 -2 -37 19 -51 30 -19 57 -72 57 -112 0 -90 -114 -163 -192 -122 -26 14
-49 -4 -30 -23 27 -27 7 -72 -35 -74 -23 -1 -29 -6 -34 -35 -16 -76 -102 -104
-158 -51 -17 15 -31 36 -33 47 -3 18 4 20 75 25 92 6 117 25 117 91 0 27 5 41
19 48 19 11 35 40 26 49 -3 3 -14 -3 -25 -13 -20 -18 -20 -18 -20 209 0 223 0
227 20 221 11 -4 20 -2 20 4 0 6 -9 16 -20 23 -14 9 -20 24 -20 50 0 32 3 38
21 38 11 0 34 -13 50 -29z m-2131 -245 c0 -9 -20 -19 -52 -26 -77 -18 -194
-82 -269 -147 -67 -58 -108 -102 -252 -272 -43 -50 -108 -116 -144 -146 -114
-94 -298 -175 -398 -175 l-43 0 -4 93 c-4 105 -25 155 -71 171 -60 21 -106
-50 -109 -170 -1 -35 -4 -64 -8 -64 -26 0 -293 177 -389 258 l-33 28 42 195
c23 107 44 202 47 212 3 13 36 -14 141 -121 202 -205 300 -257 492 -257 89 0
118 4 193 29 99 32 228 109 322 190 121 105 206 154 335 193 88 26 200 31 200
9z m-1704 -13 c-2 -10 -24 -109 -47 -220 l-43 -203 -48 0 c-26 0 -48 3 -48 7
0 4 21 103 47 220 l47 213 49 0 c41 0 48 -3 43 -17z m1632 -57 c-141 -58 -234
-139 -404 -352 -128 -161 -192 -228 -278 -291 -109 -80 -220 -124 -349 -138
l-67 -7 0 26 c0 30 -3 29 105 49 207 39 352 133 528 342 127 151 235 259 310
308 64 43 161 86 192 86 11 0 -5 -10 -37 -23z m501 -12 c33 -19 52 -48 61 -89
4 -19 13 -31 25 -33 94 -15 141 -102 100 -182 -8 -16 -24 -35 -35 -43 -17 -12
-18 -18 -10 -48 13 -44 -2 -91 -40 -123 -53 -44 -116 -42 -167 6 -21 19 -50
17 -37 -3 10 -17 -5 -75 -27 -104 -21 -26 -21 -26 -36 -6 -19 28 -27 27 -54
-14 -14 -20 -32 -35 -44 -35 -37 0 -86 39 -106 85 -19 42 -23 45 -58 45 -43 0
-92 29 -125 73 -16 21 -21 43 -21 86 0 48 5 64 29 95 31 42 78 66 126 66 34 0
36 6 15 46 -31 60 -10 141 45 169 48 25 105 19 142 -14 l33 -29 37 34 c30 27
46 34 79 34 22 0 53 -7 68 -16z m-3443 -250 c92 -44 85 -188 -10 -223 -68 -26
-129 -3 -161 59 -30 58 -10 125 48 160 39 24 78 25 123 4z m4194 -139 c0 -14
0 -27 0 -30 -1 -14 36 -74 63 -102 l31 -33 -237 0 c-130 0 -237 3 -237 8 0 4
9 13 20 20 25 15 59 81 64 124 3 18 5 34 5 36 1 1 66 2 146 2 l145 0 0 -25z
m-2893 -60 c62 -51 70 -61 55 -69 -9 -5 -20 -13 -23 -18 -6 -10 -189 138 -189
152 0 3 19 3 43 0 32 -4 59 -19 114 -65z m497 -14 c38 -41 42 -184 10 -337
l-15 -71 35 -36 c109 -116 26 -307 -134 -307 -70 0 -133 39 -166 102 -17 33
-18 110 -2 154 10 29 9 34 -16 60 -77 81 -166 244 -166 305 0 70 45 78 101 19
43 -45 99 -155 124 -243 10 -36 21 -56 28 -53 7 2 38 10 70 17 44 10 56 17 52
28 -3 9 -11 61 -17 117 -9 77 -9 118 0 164 17 92 56 125 96 81z m-1714 -31 c0
-4 -19 -17 -41 -29 -34 -19 -43 -21 -50 -10 -13 21 -12 23 26 43 19 11 35 24
35 30 1 11 30 -23 30 -34z m20 -40 c0 -15 -38 -50 -54 -50 -29 0 -25 18 7 39
36 23 47 26 47 11z m4350 -70 l0 -27 -407 1 -407 1 1 23 c0 12 1 24 2 25 1 2
183 4 406 4 l405 0 0 -27z m-2897 -24 c31 -18 70 -39 87 -46 21 -9 30 -19 30
-36 0 -30 0 -30 -71 2 -47 21 -64 35 -83 70 -14 24 -23 44 -22 44 2 0 29 -15
59 -34z m1728 -54 l21 -32 -51 0 -51 0 22 35 c13 19 27 34 31 32 4 -1 17 -17
28 -35z m-2428 -51 c19 -8 23 -15 20 -35 -3 -14 -8 -26 -10 -26 -3 0 -23 16
-44 35 -37 33 -38 35 -15 35 14 0 36 -4 49 -9z m803 -31 c12 -5 23 -19 26 -32
4 -21 0 -25 -38 -34 l-43 -10 -20 58 -20 58 37 -16 c20 -9 47 -20 58 -24z
m-1583 -7 l19 -33 -36 0 c-29 0 -38 5 -51 30 -21 40 -20 42 17 38 24 -2 37
-11 51 -35z m74 2 c23 -14 43 -28 43 -30 0 -3 -16 -5 -35 -5 -28 0 -37 5 -50
30 -19 37 -14 37 42 5z m692 -42 c8 -5 -3 -11 -30 -18 -23 -6 -27 -3 -33 22
-4 15 -10 37 -13 48 -4 16 3 12 33 -15 21 -19 41 -36 43 -37z m-861 32 l12
-25 -55 0 c-30 0 -55 2 -55 4 0 7 64 46 76 46 6 0 16 -11 22 -25z m955 11 c18
-14 23 -61 9 -84 -6 -9 -14 -6 -31 12 -18 19 -22 31 -16 55 7 34 12 36 38 17z
m-420 -55 c20 -20 16 -58 -8 -81 -25 -23 -79 -31 -104 -15 -23 14 1 95 31 109
16 7 70 -2 81 -13z m-533 -13 c0 -5 -5 -18 -10 -29 -10 -17 -13 -18 -39 -5
-15 8 -33 21 -40 29 -10 13 -4 15 39 14 27 0 50 -4 50 -9z m100 1 c0 -17 -24
-59 -34 -60 -15 -2 -50 2 -54 6 -2 2 3 16 12 32 11 23 22 29 45 29 17 0 31 -3
31 -7z m110 0 c0 -3 -22 -18 -50 -33 -55 -30 -57 -29 -35 14 13 26 21 30 50
27 19 -1 35 -5 35 -8z m807 -21 c6 -18 14 -44 18 -58 l7 -25 -29 28 c-23 21
-29 34 -25 57 6 39 15 38 29 -2z m-84 -30 c-2 -4 -19 -10 -38 -14 -59 -11 -91
35 -37 54 22 7 32 5 53 -12 15 -12 25 -24 22 -28z m57 -43 l23 -25 -25 0 c-14
0 -40 5 -59 12 l-34 12 30 12 c40 17 38 18 65 -11z m1189 -154 c139 -39 -273
-216 -600 -259 -85 -11 -103 2 -112 75 l-6 51 47 20 c34 15 50 18 60 10 9 -8
4 -18 -25 -43 -72 -62 -12 -88 148 -62 217 36 366 116 290 157 -11 5 -34 10
-51 10 -27 0 -30 2 -20 19 6 13 23 21 48 24 62 6 196 5 221 -2z m-1536 -61
c-15 -22 -31 -40 -34 -40 -7 0 -22 50 -17 56 7 6 53 23 66 23 8 1 3 -14 -15
-39z m57 -7 c0 -52 -12 -67 -44 -59 l-25 6 31 45 c18 25 33 45 35 45 2 0 3
-17 3 -37z m-390 -19 l31 -27 24 23 c37 35 91 32 126 -8 33 -36 37 -76 13
-110 -20 -29 -11 -42 29 -42 111 0 147 -173 47 -225 -41 -21 -59 -19 -53 5 7
26 -3 25 -39 -5 -16 -14 -41 -25 -54 -25 -14 0 -22 -4 -19 -10 3 -5 19 -10 36
-10 16 0 29 -4 29 -10 0 -15 -38 -50 -67 -61 -58 -22 -133 32 -133 96 0 43 -7
47 -41 22 -42 -30 -93 -28 -127 6 -23 23 -27 35 -25 77 0 28 -3 50 -8 50 -13
0 -39 56 -39 84 0 34 43 82 80 89 22 5 30 12 30 28 0 11 13 34 29 50 39 38 87
39 131 3z m270 -13 c10 -24 9 -33 -6 -55 -20 -31 -23 -30 -34 20 -6 25 -5 43
2 51 16 20 24 16 38 -16z m1390 20 c0 -14 -117 -68 -165 -77 -22 -3 -48 -11
-57 -15 -9 -5 -60 -12 -112 -15 -104 -7 -121 2 -61 30 30 15 43 15 94 5 73
-16 128 -1 181 48 28 26 44 33 78 33 23 0 42 -4 42 -9z m-553 -55 c23 -20 28
-32 27 -66 -1 -33 4 -47 27 -70 37 -37 39 -81 4 -115 -13 -14 -34 -25 -45 -25
-12 0 -36 -16 -54 -35 -28 -29 -40 -35 -75 -35 -45 0 -94 36 -106 79 -7 23 -7
23 16 7 50 -34 119 -2 119 55 0 17 10 38 25 53 34 34 34 88 0 121 -13 14 -32
25 -42 25 -17 1 -17 2 1 15 29 22 71 18 103 -9z m-737 -21 c0 -2 -5 -16 -12
-30 -9 -20 -18 -25 -50 -25 -41 0 -48 12 -21 42 14 16 83 27 83 13z m654 -26
c33 -26 34 -62 0 -88 -14 -11 -30 -21 -36 -23 -8 -3 -7 -10 1 -26 17 -32 -2
-62 -39 -62 -32 0 -56 30 -46 57 4 10 -2 21 -14 30 -35 25 -20 83 22 83 9 0
21 6 25 13 8 13 42 36 54 37 4 0 18 -9 33 -21z m702 -134 c48 -198 37 -216
-156 -257 -31 -6 -69 -8 -85 -4 -38 10 -112 84 -120 121 -11 48 -14 55 -25 55
-5 0 -10 -10 -10 -22 -1 -13 -7 -34 -14 -47 -13 -23 -14 -20 -31 55 -9 43 -21
89 -26 102 -10 27 -20 23 131 52 63 12 153 34 200 50 47 15 89 27 95 26 5 -2
24 -61 41 -131z m-1416 81 c0 -11 -19 -15 -25 -6 -3 5 1 10 9 10 9 0 16 -2 16
-4z m1115 -339 l35 -24 -41 -33 c-22 -18 -49 -46 -59 -62 l-18 -29 -22 36
c-12 20 -40 48 -61 62 l-39 26 28 17 c16 10 44 36 63 58 l33 40 23 -34 c13
-18 39 -44 58 -57z m355 39 c0 -12 -10 -38 -23 -57 -25 -38 -34 -41 -219 -84
-109 -26 -138 -27 -138 -5 0 14 69 56 105 64 17 4 47 11 68 16 20 6 54 14 76
18 42 10 111 48 111 63 0 5 5 9 10 9 6 0 10 -11 10 -24z m20 -101 c0 -24 -9
-44 -27 -65 -25 -27 -46 -35 -172 -66 -122 -29 -150 -33 -178 -23 -33 11 -58
40 -50 62 2 7 21 10 48 8 48 -2 272 49 321 75 16 8 32 22 35 30 10 26 23 14
23 -21z"/>
<path d="M6097 3462 c-22 -24 -21 -45 1 -65 22 -20 46 -22 60 -4 42 51 -17
118 -61 69z m48 -32 c0 -8 -8 -16 -17 -18 -13 -2 -18 3 -18 18 0 15 5 20 18
18 9 -2 17 -10 17 -18z"/>
<path d="M4410 3165 c0 -37 24 -95 39 -95 18 0 20 14 5 31 -9 10 -18 36 -21
58 -7 50 -23 54 -23 6z"/>
<path d="M4470 3050 c0 -5 7 -10 15 -10 8 0 15 5 15 10 0 6 -7 10 -15 10 -8 0
-15 -4 -15 -10z"/>
<path d="M5091 3126 c-16 -17 -22 -33 -19 -57 4 -42 23 -40 23 2 1 19 8 37 20
45 13 9 16 17 9 24 -7 7 -18 2 -33 -14z"/>
<path d="M5092 3009 c2 -6 8 -10 13 -10 5 0 11 4 13 10 2 6 -4 11 -13 11 -9 0
-15 -5 -13 -11z"/>
<path d="M5564 2750 c-57 -23 -81 -103 -48 -160 16 -26 16 -32 0 -93 -25 -103
-30 -97 82 -97 54 0 101 2 104 5 3 3 -3 42 -14 87 -16 71 -17 83 -4 97 39 44
22 127 -33 155 -33 18 -55 19 -87 6z m91 -45 c30 -29 32 -73 6 -107 -20 -24
-20 -26 -1 -96 10 -40 17 -73 17 -73 -6 -4 -147 -3 -147 1 0 3 7 37 16 76 17
70 17 71 -6 101 -58 79 46 168 115 98z"/>
<path d="M4465 2940 c-3 -6 5 -14 20 -20 14 -5 30 -22 36 -36 6 -19 13 -24 20
-17 15 15 -8 58 -38 72 -29 13 -30 13 -38 1z"/>
<path d="M5560 2050 c-24 -24 -25 -48 -4 -78 23 -34 84 -28 102 10 30 64 -48
118 -98 68z m80 -39 c0 -28 -28 -47 -48 -34 -24 15 -27 44 -7 59 22 17 55 1
55 -25z"/>
<path d="M6777 2238 l-18 -31 38 -39 c57 -58 77 -46 24 14 -26 30 -28 35 -15
53 17 23 18 35 2 35 -7 0 -21 -14 -31 -32z"/>
<path d="M6852 2096 c1 -10 8 -17 13 -17 15 1 12 24 -3 29 -9 3 -13 -2 -10
-12z"/>
<path d="M6675 2069 c-4 -6 -5 -13 -2 -16 7 -7 27 6 27 18 0 12 -17 12 -25 -2z"/>
<path d="M6470 1804 c0 -8 5 -12 10 -9 6 4 8 11 5 16 -9 14 -15 11 -15 -7z"/>
<path d="M6576 1803 c-3 -4 -25 -10 -49 -14 l-42 -6 40 -2 c39 -1 75 12 64 23
-3 4 -9 3 -13 -1z"/>
<path d="M4514 1941 c-32 -19 -64 -74 -64 -109 0 -29 18 -72 29 -72 6 0 7 22
4 53 -6 62 16 99 72 117 19 6 35 16 35 21 0 15 -43 10 -76 -10z"/>
<path d="M4510 1730 c0 -13 34 -30 59 -30 31 0 25 17 -10 29 -39 14 -49 14
-49 1z"/>
<path d="M3300 1270 c-22 -22 -24 -29 -10 -50 7 -11 11 -9 19 13 12 31 27 34
52 11 25 -23 34 1 9 26 -25 25 -45 25 -70 0z"/>
<path d="M3114 1215 c-15 -23 -12 -45 7 -45 5 0 9 9 9 20 0 28 30 38 46 16 7
-10 18 -15 24 -11 17 11 -18 45 -46 45 -14 0 -30 -10 -40 -25z"/>
<path d="M3238 1179 c-23 -13 -23 -32 2 -54 11 -10 20 -24 20 -32 0 -7 -9 -13
-20 -13 -11 0 -20 -4 -20 -10 0 -16 73 -12 98 6 26 18 20 39 -8 24 -23 -12
-35 12 -18 39 24 38 -12 65 -54 40z"/>
<path d="M1927 1039 c-9 -6 -15 -14 -12 -18 7 -12 56 0 52 12 -5 16 -20 18
-40 6z"/>
<path d="M1985 1021 c-3 -5 0 -13 6 -16 5 -4 10 -21 9 -39 -3 -46 -1 -50 15
-36 18 15 19 40 3 75 -12 26 -23 32 -33 16z"/>
<path d="M1646 833 c-11 -12 -6 -69 8 -89 20 -27 31 -10 16 25 -7 17 -10 37
-7 46 6 15 -6 29 -17 18z"/>
<path d="M1347 4264 c-9 -10 4 -34 19 -34 8 0 14 4 14 9 0 12 -26 32 -33 25z"/>
<path d="M5740 4236 c0 -7 19 -31 42 -52 54 -49 64 -27 12 27 -40 41 -54 48
-54 25z"/>
<path d="M880 4230 c0 -10 58 -50 73 -50 19 0 4 27 -24 43 -35 19 -49 22 -49
7z"/>
<path d="M5392 4193 c-46 -43 -65 -73 -45 -73 11 0 63 53 63 64 0 6 10 16 22
21 22 10 37 35 21 35 -5 0 -32 -21 -61 -47z"/>
<path d="M975 4190 c-3 -6 1 -13 10 -16 19 -8 30 0 20 15 -8 14 -22 14 -30 1z"/>
<path d="M6294 4171 c-2 -2 -4 -33 -4 -68 l0 -63 65 0 66 0 -3 68 -3 67 -58 0
c-32 0 -60 -2 -63 -4z m104 -63 c-3 -41 -3 -41 -43 -41 -40 0 -40 0 -43 41
l-3 42 46 0 46 0 -3 -42z"/>
<path d="M5840 4137 c0 -8 9 -22 19 -31 26 -23 39 -2 15 25 -20 22 -34 25 -34
6z"/>
<path d="M8300 4108 c0 -7 16 -24 35 -37 28 -19 35 -30 35 -57 0 -24 5 -34 15
-34 11 0 15 11 15 38 0 34 -5 42 -45 70 -51 36 -55 37 -55 20z"/>
<path d="M8641 4066 c-18 -19 -29 -36 -23 -39 5 -4 23 9 41 27 18 19 29 36 23
39 -5 4 -23 -9 -41 -27z"/>
<path d="M1745 4065 c-50 -18 -77 -48 -144 -159 -51 -84 -52 -88 -36 -106 17
-19 17 -20 -17 -34 -48 -21 -91 -7 -165 50 -87 69 -146 94 -223 94 -79 0 -139
-27 -183 -82 -70 -88 -43 -208 48 -208 41 0 63 25 73 81 8 42 10 44 40 43 34
-2 44 11 15 19 -10 3 -1 5 19 6 20 0 40 -4 44 -11 4 -7 3 -8 -4 -4 -7 4 -12 2
-12 -3 0 -6 14 -11 31 -11 20 0 46 -12 72 -32 l40 -32 -65 -12 c-169 -31 -318
-168 -318 -291 0 -70 63 -114 120 -83 12 6 27 37 41 83 39 132 138 198 264
177 83 -14 138 -11 180 10 21 11 40 19 41 17 9 -8 -43 -50 -88 -72 -66 -31
-88 -63 -68 -99 7 -14 25 -30 40 -36 35 -15 100 10 135 52 23 27 25 28 25 8 0
-30 -25 -75 -56 -99 -22 -17 -41 -21 -101 -21 -66 0 -77 -3 -99 -26 -20 -19
-24 -31 -19 -52 39 -158 291 -60 365 142 6 16 13 26 16 23 5 -5 -5 -63 -22
-124 -2 -7 -21 -21 -44 -33 -65 -33 -74 -95 -18 -134 40 -28 99 -15 142 33 27
30 84 29 95 -2 13 -34 66 -75 105 -82 51 -10 114 26 135 76 11 27 21 37 31 33
40 -15 71 -15 105 1 47 23 69 58 70 110 1 28 9 52 24 71 19 24 22 38 18 77 -5
53 -26 83 -74 104 -18 7 -33 20 -33 29 0 9 -15 31 -34 50 -28 28 -41 34 -77
34 -24 0 -57 -8 -73 -18 -29 -17 -31 -17 -69 2 -36 18 -43 18 -81 5 -56 -19
-88 -69 -84 -128 4 -58 -17 -66 -38 -15 -23 54 -14 120 20 148 14 11 50 64 81
115 46 80 55 103 55 143 0 83 -44 147 -117 174 -48 17 -78 17 -128 -1z m145
-37 c55 -38 74 -72 74 -131 0 -45 -7 -63 -54 -140 -30 -49 -56 -90 -60 -92 -9
-5 -265 154 -263 164 3 12 84 142 102 165 49 59 141 74 201 34z m-619 -168
c24 -13 69 -42 99 -66 88 -69 156 -83 211 -43 34 24 36 18 9 -26 -25 -41 -75
-65 -133 -65 -40 0 -55 7 -132 65 -48 35 -102 67 -120 71 -72 13 -135 -33
-135 -100 0 -26 -23 -56 -43 -56 -24 0 -56 31 -62 60 -14 62 37 140 115 175
47 21 133 14 191 -15z m387 -136 c4 -27 -52 -110 -90 -135 -31 -19 -43 -20
-160 -14 -118 6 -131 5 -172 -15 -67 -32 -111 -87 -136 -169 -23 -78 -45 -100
-80 -81 -100 53 24 251 193 310 63 22 109 26 202 16 56 -6 79 -4 113 9 40 16
102 74 102 96 0 18 25 3 28 -17z m37 -74 c-19 -28 -37 -70 -40 -94 -9 -57 -43
-115 -84 -143 -40 -27 -64 -29 -86 -7 -26 26 -14 47 42 74 56 27 113 76 113
97 0 7 12 42 26 78 23 57 28 63 44 55 17 -9 16 -13 -15 -60z m85 11 c0 -5 -7
-14 -16 -21 -31 -26 -39 -56 -39 -150 -1 -115 -21 -168 -89 -234 -44 -43 -115
-76 -161 -76 -29 0 -75 37 -75 60 0 32 29 44 105 46 59 1 79 6 105 24 47 34
70 91 70 178 0 79 15 128 51 161 23 21 49 28 49 12z m19 -64 c-8 -29 -6 -52 6
-99 14 -57 14 -61 -2 -74 -16 -12 -20 -9 -35 24 -31 66 -19 154 26 184 16 10
16 5 5 -35z m437 -11 c19 -19 34 -43 34 -55 0 -14 6 -21 19 -21 27 0 77 -45
85 -74 7 -29 -5 -66 -30 -91 -18 -17 -19 -17 -24 5 -9 38 -30 36 -30 -2 0 -19
-5 -39 -11 -45 -6 -6 -8 -16 -4 -23 9 -14 35 6 35 27 0 8 5 11 10 8 6 -3 10
-22 10 -41 0 -26 -8 -44 -29 -65 -35 -35 -72 -37 -119 -9 -18 11 -34 20 -36
20 -2 0 -6 -18 -9 -41 -3 -23 -15 -52 -28 -65 -43 -46 -129 -40 -164 12 -21
32 -20 34 16 32 19 -2 34 2 36 10 3 7 -5 12 -22 12 -14 0 -37 11 -51 25 -37
37 -55 34 -33 -7 10 -19 9 -20 -16 -14 -56 14 -105 70 -105 120 0 60 65 126
123 126 27 0 38 22 17 35 -5 3 -10 26 -10 50 0 36 5 48 31 69 37 31 73 33 118
5 33 -20 34 -20 55 -1 46 42 88 42 132 -2z m-464 -384 c-7 -2 -12 -8 -12 -14
0 -6 6 -5 16 2 12 11 18 11 31 -2 14 -14 11 -18 -23 -42 -44 -30 -80 -33 -106
-9 -35 31 -22 59 45 92 30 15 33 15 46 -3 11 -15 12 -21 3 -24z"/>
<path d="M1700 3980 c-29 -29 -24 -77 11 -102 36 -27 76 -15 97 28 15 32 15
36 -5 62 -26 36 -74 41 -103 12z m44 -25 c-16 -24 -16 -27 1 -45 18 -19 17
-20 -4 -20 -13 0 -26 10 -33 26 -11 23 -10 29 11 45 33 27 44 24 25 -6z m36
-25 c0 -5 -4 -10 -10 -10 -5 0 -10 5 -10 10 0 6 5 10 10 10 6 0 10 -4 10 -10z"/>
<path d="M1826 3905 c-31 -31 -27 -84 8 -107 21 -14 73 -8 89 10 22 25 21 75
-1 95 -23 21 -76 22 -96 2z m46 -17 c-17 -17 -15 -38 5 -60 18 -20 4 -25 -28
-8 -34 19 -19 80 20 80 12 0 12 -3 3 -12z m33 -28 c3 -5 -1 -10 -10 -10 -9 0
-13 5 -10 10 3 6 8 10 10 10 2 0 7 -4 10 -10z"/>
<path d="M1985 3581 c-3 -6 -5 -11 -3 -12 35 -9 59 -8 56 3 -6 16 -44 23 -53
9z"/>
<path d="M1934 3546 c-8 -32 -2 -69 13 -73 7 -3 11 7 10 29 0 18 3 41 7 51 6
12 4 17 -8 17 -8 0 -18 -11 -22 -24z"/>
<path d="M2038 3513 c-22 -6 -22 -7 2 -87 18 -56 24 -66 43 -66 36 0 42 14 37
87 -5 67 -5 68 -35 70 -16 0 -38 -1 -47 -4z m56 -45 c9 -34 7 -78 -3 -78 -7 0
-41 80 -41 97 0 2 8 3 19 3 11 0 21 -9 25 -22z"/>
<path d="M2080 3315 c-26 -32 13 -81 48 -59 34 22 22 74 -18 74 -10 0 -23 -7
-30 -15z m37 -31 c-9 -9 -28 6 -21 18 4 6 10 6 17 -1 6 -6 8 -13 4 -17z"/>
<path d="M8670 4018 c-72 -58 -102 -90 -92 -100 6 -6 31 10 73 49 34 33 58 62
53 65 -5 4 -20 -3 -34 -14z"/>
<path d="M8541 3981 c-26 -22 -41 -42 -37 -49 8 -14 96 55 96 75 0 20 -12 15
-59 -26z"/>
<path d="M6146 3943 c-12 -12 -6 -21 29 -42 33 -19 36 -19 64 -3 28 16 32 16
58 0 25 -15 31 -15 57 -1 27 14 33 14 63 -2 24 -13 30 -21 21 -27 -7 -4 -8 -8
-2 -8 5 0 19 7 30 16 10 8 12 12 4 8 -13 -7 -13 -5 -1 9 14 18 52 17 76 -3 10
-8 15 -8 20 0 4 6 -1 18 -11 26 -31 23 -62 27 -88 11 -21 -14 -25 -14 -52 3
-28 19 -29 19 -59 0 -30 -19 -31 -19 -60 0 -28 18 -29 18 -57 -1 l-28 -20 -29
20 c-15 11 -31 18 -35 14z"/>
<path d="M8370 3935 c0 -8 5 -15 10 -15 6 0 10 7 10 15 0 8 -4 15 -10 15 -5 0
-10 -7 -10 -15z"/>
<path d="M8635 3930 c-11 -17 5 -32 21 -19 7 6 11 15 8 20 -7 12 -21 11 -29
-1z"/>
<path d="M9400 3869 c-67 -36 -79 -39 -109 -30 -37 11 -78 0 -87 -23 -3 -8
-16 -17 -29 -20 -18 -5 -27 -19 -40 -61 -17 -53 -17 -56 0 -75 10 -11 26 -20
36 -20 10 0 21 -4 24 -10 3 -5 22 -10 41 -10 26 0 44 9 71 34 19 18 44 41 54
50 12 9 19 29 19 49 0 28 9 41 55 81 48 41 70 77 48 76 -5 0 -42 -19 -83 -41z
m-22 -56 c-16 -17 -26 -39 -26 -57 0 -29 -23 -56 -49 -56 -7 0 -13 -7 -13 -15
0 -8 -11 -22 -25 -31 -23 -15 -27 -15 -50 0 -13 9 -31 16 -40 16 -21 0 -30 27
-16 44 6 7 9 21 5 30 -4 10 0 18 12 22 11 4 31 18 47 32 25 24 30 25 62 13 30
-10 39 -9 72 8 50 26 51 26 21 -6z"/>
<path d="M8520 3885 c-7 -9 -11 -18 -8 -20 9 -10 38 7 38 21 0 18 -14 18 -30
-1z"/>
<path d="M3441 3873 c-47 -38 3 -103 80 -103 13 0 19 -5 16 -12 -2 -7 -15 -41
-27 -76 -21 -59 -24 -61 -40 -47 -26 23 -37 -1 -14 -27 18 -19 18 -22 -8 -95
-28 -78 -28 -97 0 -108 18 -7 52 27 52 51 0 8 5 14 11 14 7 0 8 -7 4 -17 -17
-43 -18 -56 0 -69 23 -17 51 -3 59 31 7 28 32 33 60 12 14 -10 15 -17 6 -41
-8 -21 -7 -32 1 -42 20 -24 45 -15 63 22 21 44 31 40 14 -6 -10 -29 -9 -35 8
-49 11 -9 23 -24 27 -33 11 -31 27 -19 26 20 -1 20 10 66 24 102 15 36 26 57
27 48 0 -29 29 -49 52 -37 32 17 18 71 -33 127 -24 26 -49 51 -56 55 -7 4 -59
15 -116 23 -56 9 -104 17 -106 19 -2 2 10 43 27 90 16 48 27 95 25 106 -8 30
-45 50 -105 56 -43 4 -57 2 -77 -14z m81 -35 c4 -29 37 -36 55 -13 28 40 23
-14 -11 -109 l-35 -97 23 -8 c12 -5 68 -16 124 -24 100 -15 102 -16 147 -62
27 -28 45 -55 44 -68 -1 -21 -2 -21 -6 -2 -5 21 -32 55 -43 55 -4 0 -19 -37
-35 -82 -15 -46 -32 -87 -38 -93 -7 -7 -8 -4 -3 8 18 52 18 65 -2 76 -32 17
-41 13 -56 -24 -17 -40 -31 -48 -16 -9 16 41 12 53 -23 68 -74 30 -74 30 -96
-16 -12 -24 -19 -32 -15 -18 3 14 8 34 11 46 3 15 -2 23 -22 32 -14 7 -27 12
-29 12 -2 0 -11 -19 -20 -41 -9 -23 -19 -40 -21 -37 -3 2 22 77 55 166 32 90
57 169 53 177 -3 9 -17 18 -32 20 -60 13 -76 21 -79 43 -3 19 1 22 32 22 28 0
35 -4 38 -22z"/>
<path d="M8571 3769 c-52 -49 -81 -83 -75 -89 9 -9 184 143 184 161 0 23 -31
2 -109 -72z"/>
<path d="M2825 3796 c-76 -33 -121 -148 -77 -198 8 -10 15 -27 16 -39 1 -25
19 -30 116 -32 86 -3 139 47 140 130 0 32 5 45 20 53 28 15 25 34 -3 26 -18
-4 -30 1 -48 20 -46 50 -107 65 -164 40z m122 -36 c36 -21 60 -82 50 -122 -26
-100 -157 -124 -214 -39 -73 108 51 230 164 161z"/>
<path d="M2865 3720 c-4 -6 -10 -8 -15 -5 -19 12 -50 -16 -50 -44 0 -23 10
-37 48 -64 54 -41 61 -38 85 37 20 59 10 86 -33 86 -16 0 -32 -5 -35 -10z m50
-20 c7 -12 -15 -90 -26 -90 -5 0 -23 13 -40 28 -36 32 -32 57 6 48 15 -4 25
-1 29 9 6 17 22 20 31 5z"/>
<path d="M3155 3761 c-7 -13 17 -24 40 -19 9 1 16 8 16 13 0 14 -48 19 -56 6z"/>
<path d="M3077 3754 c-9 -9 2 -24 17 -24 7 0 21 7 32 15 18 14 17 14 -12 15
-17 0 -34 -3 -37 -6z"/>
<path d="M3235 3751 c14 -14 49 -18 55 -6 3 6 -11 11 -30 13 -24 2 -32 0 -25
-7z"/>
<path d="M6327 3743 c-15 -14 -6 -24 20 -20 34 5 43 27 11 27 -14 0 -28 -3
-31 -7z"/>
<path d="M3310 3730 c0 -14 48 -35 58 -26 8 9 -26 36 -45 36 -7 0 -13 -5 -13
-10z"/>
<path d="M6400 3727 c0 -17 47 -29 56 -15 8 12 4 15 -29 23 -20 5 -27 4 -27
-8z"/>
<path d="M6926 3698 c14 -86 29 -121 71 -168 50 -56 108 -80 190 -80 52 0 53
1 53 29 0 59 -33 135 -80 181 -51 52 -99 70 -183 70 l-56 0 5 -32z m136 -6 c9
-8 -1 -52 -11 -52 -4 0 -23 16 -42 36 l-34 36 40 -7 c22 -3 43 -10 47 -13z
m-63 -43 c26 -25 31 -33 20 -40 -31 -20 -44 -10 -59 41 -11 38 -4 37 39 -1z
m128 13 c19 -14 22 -23 17 -54 -8 -44 -13 -46 -42 -15 -17 18 -21 31 -16 55 7
37 11 38 41 14z m79 -138 l7 -29 -27 24 c-25 24 -35 69 -19 85 8 8 27 -31 39
-80z m-117 45 c27 -22 28 -22 -19 -38 -32 -11 -37 -10 -52 10 -10 12 -18 25
-18 29 0 9 23 17 50 19 8 0 26 -9 39 -20z m75 -68 l28 -29 -44 8 c-24 5 -52
12 -62 16 -17 7 -15 9 15 20 19 7 34 13 35 13 0 1 13 -12 28 -28z"/>
<path d="M6475 3711 c-3 -6 1 -13 9 -16 9 -3 23 -7 31 -10 13 -4 32 12 23 20
-10 11 -57 15 -63 6z"/>
<path d="M3380 3692 c0 -16 39 -44 50 -37 8 5 6 13 -6 26 -17 19 -44 26 -44
11z"/>
<path d="M6557 3694 c-13 -13 5 -24 36 -24 30 1 31 1 13 15 -21 16 -39 19 -49
9z"/>
<path d="M6630 3669 c0 -6 9 -13 20 -16 20 -5 20 -7 4 -30 -10 -16 -12 -29 -6
-35 6 -6 15 0 24 14 26 42 28 57 8 68 -25 13 -50 13 -50 -1z"/>
<path d="M8420 3625 c-7 -8 -10 -19 -6 -22 9 -9 38 8 38 22 -1 16 -18 16 -32
0z"/>
<path d="M6606 3556 c-11 -18 -13 -27 -4 -32 12 -8 38 22 38 43 0 21 -16 15
-34 -11z"/>
<path d="M10284 3527 c-3 -8 -4 -39 -2 -68 l3 -54 65 0 65 0 0 65 0 65 -63 3
c-47 2 -64 -1 -68 -11z m106 -57 l0 -40 -40 0 -40 0 0 40 0 40 40 0 40 0 0
-40z"/>
<path d="M6566 3494 c-8 -20 7 -39 22 -30 13 8 9 39 -5 43 -6 2 -13 -4 -17
-13z"/>
<path d="M6614 3468 c-8 -13 -1 -19 29 -21 14 -1 26 3 26 8 1 14 -47 26 -55
13z"/>
<path d="M10500 3471 c0 -5 14 -20 31 -32 31 -22 32 -22 65 -4 32 17 35 17 60
0 25 -16 28 -16 58 0 31 17 34 17 59 1 24 -16 28 -16 57 -1 28 15 33 15 60 -2
40 -24 52 -7 15 23 -35 28 -47 29 -80 8 -22 -14 -26 -14 -53 1 -26 16 -31 16
-60 1 -28 -15 -33 -15 -60 1 -28 16 -31 16 -56 -1 -25 -16 -29 -16 -51 -2 -27
18 -45 21 -45 7z"/>
<path d="M6694 3449 c-8 -13 -5 -16 30 -25 21 -5 28 -4 24 6 -6 18 -46 32 -54
19z"/>
<path d="M2897 3412 c-10 -10 -17 -26 -17 -35 0 -21 27 -47 50 -47 10 0 26 7
34 16 30 30 9 84 -33 84 -10 0 -25 -8 -34 -18z m58 -32 c0 -8 -10 -16 -22 -18
-18 -3 -23 2 -23 18 0 16 5 21 23 18 12 -2 22 -10 22 -18z"/>
<path d="M6770 3421 c0 -5 12 -12 26 -15 20 -5 24 -10 15 -19 -13 -13 -15 -37
-1 -37 18 0 31 39 20 60 -11 20 -60 29 -60 11z"/>
<path d="M9790 3391 c-83 -26 -174 -91 -217 -154 -21 -31 -34 -41 -50 -39 -69
10 -186 -69 -199 -135 -5 -24 -14 -32 -54 -46 -54 -19 -80 -51 -87 -108 -11
-80 72 -153 151 -131 32 8 44 7 60 -4 26 -18 56 -18 82 0 19 14 22 12 38 -15
26 -44 89 -72 149 -66 79 7 136 62 144 141 3 25 9 46 14 46 4 0 24 15 44 34
20 19 42 37 50 39 7 3 11 14 9 24 -4 13 12 30 57 63 152 110 218 242 154 305
-24 25 -48 30 -132 25 -26 -1 -51 5 -65 14 -24 17 -103 20 -148 7z m141 -37
c79 -71 -112 -254 -269 -258 -46 -1 -57 3 -74 24 -85 105 240 327 343 234z
m159 -13 c14 -4 31 -19 40 -33 13 -25 13 -31 -8 -73 -74 -152 -338 -315 -512
-315 -77 0 -104 20 -97 71 3 21 15 54 26 73 21 34 22 34 52 19 120 -60 375 90
385 226 2 20 3 37 3 39 2 5 87 0 111 -7z m-547 -191 c3 -13 -8 -42 -29 -77
-41 -68 -44 -111 -11 -149 44 -51 170 -44 306 17 35 16 66 29 69 29 12 0 -45
-53 -70 -66 -24 -13 -28 -21 -28 -59 0 -82 -84 -146 -164 -124 -48 13 -83 44
-96 84 -13 40 -31 45 -45 13 -14 -31 -58 -36 -78 -8 -14 20 -15 20 -44 4 -39
-23 -95 -12 -123 23 -49 62 -4 163 72 163 31 0 35 3 45 43 21 78 80 126 154
127 29 0 38 -5 42 -20z"/>
<path d="M9801 3351 c-14 -4 -26 -12 -29 -19 -4 -14 0 -14 55 -2 28 7 51 6 68
0 34 -13 54 -2 30 17 -20 14 -82 16 -124 4z"/>
<path d="M9720 3315 c-7 -9 -10 -18 -7 -21 9 -9 48 16 42 27 -9 13 -21 11 -35
-6z"/>
<path d="M10010 3265 c-17 -20 -8 -49 16 -53 27 -4 47 21 39 48 -7 23 -37 27
-55 5z"/>
<path d="M9837 3093 c-11 -10 -8 -51 3 -58 15 -9 47 4 54 22 11 29 -35 58 -57
36z"/>
<path d="M9611 3016 c-22 -26 10 -63 43 -50 35 13 24 64 -14 64 -10 0 -23 -6
-29 -14z m34 -16 c3 -5 1 -10 -4 -10 -6 0 -11 5 -11 10 0 6 2 10 4 10 3 0 8
-4 11 -10z"/>
<path d="M6766 3321 c-19 -21 -21 -41 -3 -41 16 0 40 47 28 54 -5 3 -16 -3
-25 -13z"/>
<path d="M2772 3318 c-17 -17 -15 -53 4 -72 20 -21 37 -20 65 3 20 16 22 23
14 47 -8 22 -18 30 -40 32 -17 2 -36 -3 -43 -10z m56 -31 c4 -22 -27 -35 -38
-16 -10 15 7 42 24 36 6 -2 12 -11 14 -20z"/>
<path d="M6712 3249 c-20 -31 1 -47 22 -18 9 13 16 27 16 31 0 16 -26 7 -38
-13z"/>
<path d="M8887 3240 c-15 -12 -34 -46 -47 -83 -18 -54 -27 -66 -68 -92 -26
-17 -54 -44 -62 -62 -10 -21 -22 -33 -35 -32 -11 0 -74 17 -140 39 -66 22
-122 36 -126 32 -3 -4 -14 -29 -24 -57 -10 -27 -26 -69 -37 -93 l-18 -44 -26
21 c-42 33 -105 29 -143 -10 -79 -79 -3 -208 113 -191 50 8 107 76 144 172 47
124 38 118 126 90 75 -23 87 -32 65 -46 -7 -4 -9 -24 -6 -51 l5 -44 -25 23
c-38 36 -103 32 -144 -8 -35 -36 -47 -95 -27 -134 23 -43 77 -72 125 -67 57 6
94 36 132 106 18 35 39 61 48 61 19 0 83 66 83 85 0 8 11 22 25 31 39 25 49
82 20 114 -23 26 -7 69 34 89 58 30 86 66 86 112 0 59 -32 75 -78 39z m53 -39
c0 -21 -10 -38 -35 -60 -48 -42 -57 -39 -39 11 26 75 74 106 74 49z m-149
-189 c-22 -15 -29 -56 -11 -67 13 -8 13 -45 1 -45 -23 0 -41 14 -41 31 0 10
-4 19 -10 19 -23 0 -7 35 32 74 37 36 43 39 46 21 3 -12 -4 -25 -17 -33z
m-231 -38 c63 -20 121 -38 129 -40 14 -4 12 -26 -10 -107 -7 -28 -14 -36 -21
-29 -8 8 -6 25 5 59 15 44 15 49 0 60 -9 7 -31 16 -50 19 -18 3 -36 10 -39 15
-3 5 -15 9 -28 9 -12 0 -26 4 -31 9 -6 4 -22 11 -36 14 -23 6 -28 1 -47 -36
-11 -23 -29 -68 -40 -99 -33 -93 -94 -158 -151 -158 -11 0 -33 12 -48 26 -22
20 -23 23 -6 15 31 -16 96 -13 119 4 18 14 18 16 -18 50 -25 23 -51 37 -79 41
l-42 7 22 19 c38 30 96 17 126 -29 22 -33 30 -29 45 20 8 23 17 47 21 52 4 6
15 34 24 63 10 28 22 52 29 52 6 0 63 -16 126 -36z m280 -18 c0 -14 -4 -28
-10 -31 -6 -4 -10 7 -10 24 0 17 5 31 10 31 6 0 10 -11 10 -24z m-80 -80 l24
-14 -37 -37 c-21 -21 -40 -35 -43 -33 -6 7 16 98 25 98 3 -1 17 -7 31 -14z
m-185 -91 c14 -13 25 -31 25 -40 0 -22 27 -18 33 5 3 11 10 20 17 20 25 0 -25
-98 -63 -125 -30 -21 -90 -19 -118 5 l-24 19 33 -9 c40 -11 87 -3 103 17 25
29 -95 110 -131 88 -20 -13 -9 15 12 29 34 24 85 20 113 -9z m-395 -1 c0 -8
-4 -12 -10 -9 -5 3 -10 10 -10 16 0 5 5 9 10 9 6 0 10 -7 10 -16z m60 1 c10
-12 9 -16 -5 -21 -19 -8 -40 9 -31 25 10 15 21 14 36 -4z m39 -36 c-16 -10
-23 -4 -14 10 3 6 11 8 17 5 6 -4 5 -9 -3 -15z m171 -25 c0 -8 -4 -12 -10 -9
-5 3 -10 10 -10 16 0 5 5 9 10 9 6 0 10 -7 10 -16z m59 -20 c-9 -11 -15 -12
-25 -3 -11 9 -12 15 -3 25 9 11 15 12 25 3 11 -9 12 -15 3 -25z m41 -9 c0 -8
-4 -15 -10 -15 -5 0 -7 7 -4 15 4 8 8 15 10 15 2 0 4 -7 4 -15z"/>
<path d="M3750 3229 c-12 -22 -6 -54 9 -45 12 8 20 55 10 62 -4 2 -13 -5 -19
-17z"/>
<path d="M6667 3182 c-21 -23 -21 -32 -2 -32 12 0 35 28 35 44 0 12 -17 5 -33
-12z"/>
<path d="M3710 3145 c-7 -14 -10 -28 -6 -32 9 -9 47 38 40 49 -9 14 -20 8 -34
-17z"/>
<path d="M2886 3147 c-28 -20 -18 -69 16 -81 22 -8 32 -6 48 9 50 45 -9 112
-64 72z m54 -38 c0 -12 -7 -19 -19 -19 -22 0 -34 23 -19 38 15 15 38 3 38 -19z"/>
<path d="M2818 3127 c-26 -38 -78 -146 -78 -159 0 -7 9 -19 20 -26 15 -9 20
-23 20 -57 0 -60 43 -110 103 -122 33 -7 43 -14 45 -31 4 -30 36 -46 62 -32
11 6 20 18 20 26 0 12 11 14 63 9 99 -10 105 -12 112 -44 8 -38 38 -65 63 -57
25 8 35 32 22 56 -8 15 -5 19 14 24 13 3 26 13 30 21 16 43 -38 69 -87 42
l-28 -17 -54 58 c-47 50 -54 61 -49 88 7 39 -14 58 -56 49 -24 -5 -36 -1 -61
19 -42 36 -115 36 -156 2 -21 -17 -33 -22 -44 -15 -12 7 -7 23 29 89 23 44 42
85 42 90 0 17 -17 11 -32 -13z m145 -172 c20 -14 37 -30 37 -35 0 -21 -65
-140 -77 -140 -7 0 -30 7 -51 16 -99 39 -74 180 33 183 11 1 37 -10 58 -24z
m111 -47 c-3 -5 -12 -4 -20 3 -7 6 -11 15 -8 21 3 5 12 4 20 -3 7 -6 11 -15 8
-21z m11 -68 c27 -27 46 -50 42 -50 -4 0 -34 14 -66 31 -52 28 -59 34 -50 50
5 11 13 19 17 19 4 0 30 -22 57 -50z m-24 -50 c62 -30 62 -31 24 -26 -22 3
-51 6 -65 6 -35 0 -52 13 -44 33 8 22 11 22 85 -13z m229 -40 c0 -5 -14 -10
-31 -10 -17 0 -28 4 -24 10 3 6 17 10 31 10 13 0 24 -4 24 -10z m-309 -15 c-1
-15 -24 -12 -29 3 -3 9 2 13 12 10 10 -1 17 -7 17 -13z m266 -71 c-10 -10 -37
16 -37 34 0 13 4 12 22 -5 12 -13 19 -25 15 -29z"/>
<path d="M2880 2935 c-20 -25 -8 -50 25 -50 21 0 31 5 33 18 4 21 -14 47 -33
47 -7 0 -18 -7 -25 -15z m40 -19 c0 -3 -4 -8 -10 -11 -5 -3 -10 -1 -10 4 0 6
5 11 10 11 6 0 10 -2 10 -4z"/>
<path d="M3660 3090 c-18 -13 -22 -22 -14 -30 7 -7 17 -3 33 14 28 30 14 41
-19 16z"/>
<path d="M537 3083 c-11 -18 -77 -283 -77 -308 0 -39 39 -103 77 -127 37 -22
33 -41 -13 -52 -14 -4 -49 -16 -79 -27 -45 -17 -55 -25 -55 -43 0 -46 22 -50
106 -22 43 14 79 24 82 22 9 -10 -10 -25 -46 -37 -120 -38 -142 -50 -142 -74
0 -44 25 -45 135 -8 l101 34 91 -30 c50 -17 119 -35 152 -42 57 -12 63 -16
117 -82 65 -77 82 -89 107 -76 29 17 19 50 -34 111 -34 39 -48 63 -42 69 6 6
27 -10 57 -46 47 -55 71 -66 94 -43 20 20 14 33 -37 95 l-49 59 20 61 c18 54
24 63 51 69 62 13 154 135 130 173 -20 32 -51 25 -72 -17 -20 -40 -73 -92 -93
-92 -6 0 -27 15 -47 33 -29 26 -61 39 -159 66 -67 18 -122 34 -122 35 0 2 14
51 30 111 18 63 27 112 22 117 -5 5 -31 -11 -61 -38 l-52 -47 -61 14 -61 14
-22 64 c-20 61 -37 83 -48 64z m64 -150 c13 -6 48 -18 77 -27 l53 -15 41 37
c25 22 39 30 35 19 -4 -10 -18 -62 -32 -115 -30 -110 -43 -135 -88 -162 -61
-38 -144 -14 -179 51 -23 42 -22 66 1 154 11 39 23 81 26 95 14 53 18 55 30
15 7 -25 21 -44 36 -52z m247 -193 c2 0 -18 -20 -45 -44 -26 -24 -45 -48 -40
-52 4 -4 20 4 35 18 33 31 84 58 109 58 16 -1 16 -2 -2 -12 -32 -17 -75 -61
-75 -75 0 -20 11 -16 45 16 31 31 105 68 105 53 0 -4 -12 -15 -28 -24 -39 -23
-65 -55 -57 -68 5 -8 18 -2 39 18 17 16 45 37 62 45 30 16 32 15 58 -12 37
-38 42 -84 18 -154 l-19 -59 48 -55 c27 -31 49 -60 49 -65 0 -20 -22 -4 -68
48 l-49 56 -29 -18 c-16 -10 -31 -19 -33 -21 -2 -1 18 -28 44 -60 27 -32 55
-65 62 -75 9 -10 11 -18 4 -22 -6 -4 -41 29 -78 74 -50 58 -74 80 -92 80 -34
0 -211 49 -242 67 -25 15 -33 13 -135 -21 -62 -21 -112 -32 -117 -27 -11 11
-9 13 106 51 81 26 97 35 92 49 -4 9 -10 24 -12 34 -7 22 -16 22 -102 -8 -41
-13 -78 -22 -83 -19 -16 10 3 20 88 48 57 19 83 33 87 45 3 14 11 17 29 14 51
-10 140 56 154 113 5 20 9 21 37 13 18 -5 33 -9 35 -9z m412 -2 c-1 -17 -28
-53 -35 -46 -8 7 16 58 27 58 4 0 8 -6 8 -12z m-55 -88 c-20 -22 -76 -50 -87
-44 -15 10 -8 24 11 24 11 0 32 11 48 24 31 27 53 24 28 -4z"/>
<path d="M538 2879 c-27 -16 -23 -65 7 -85 23 -15 27 -15 50 0 27 18 34 63 13
84 -15 15 -47 15 -70 1z m24 -44 c-7 -25 -9 -26 -15 -11 -4 10 -2 25 4 33 16
19 20 12 11 -22z"/>
<path d="M660 2840 c-24 -24 -25 -38 -4 -68 18 -27 55 -29 77 -4 22 24 21 55
-1 75 -25 22 -48 21 -72 -3z m23 -30 c-3 -12 -8 -19 -11 -16 -5 6 5 36 12 36
2 0 2 -9 -1 -20z"/>
<path d="M577 2733 c-30 -16 -28 -33 4 -33 11 0 29 -5 39 -10 24 -13 35 3 15
20 -8 7 -15 19 -15 26 0 17 -7 16 -43 -3z"/>
<path d="M3596 3031 c-24 -26 -4 -35 22 -10 12 11 22 22 22 24 0 12 -29 3 -44
-14z"/>
<path d="M3535 2980 c-10 -11 -16 -23 -12 -26 9 -9 47 16 47 31 0 21 -14 19
-35 -5z"/>
<path d="M3480 2919 c-7 -11 -9 -23 -6 -26 7 -7 46 26 46 39 0 17 -30 7 -40
-13z"/>
<path d="M9910 2911 c0 -31 14 -49 25 -32 8 13 -5 61 -16 61 -5 0 -9 -13 -9
-29z"/>
<path d="M1935 2881 c-40 -18 -73 -49 -93 -86 -7 -13 -21 -20 -39 -20 -24 0
-28 -4 -28 -29 -1 -16 -6 -31 -13 -34 -18 -6 -15 -49 4 -56 9 -3 26 -6 39 -6
15 0 26 -9 34 -27 23 -54 65 -89 127 -106 33 -9 70 -17 82 -17 17 0 22 -6 22
-28 0 -43 26 -72 65 -72 36 0 65 28 65 63 0 16 5 18 33 13 17 -3 73 -8 122
-11 154 -10 155 -11 155 -51 0 -80 65 -139 112 -101 32 24 31 53 -3 92 l-32
36 41 -2 c69 -4 101 40 66 90 -15 21 -22 23 -67 17 -34 -4 -59 -13 -77 -31
l-26 -25 -109 110 c-104 104 -108 110 -92 128 54 59 -24 133 -91 86 -22 -15
-25 -14 -67 20 -82 68 -154 82 -230 47z m177 -40 c65 -41 89 -69 78 -88 -5
-10 -32 -67 -60 -126 -40 -88 -53 -108 -67 -104 -10 3 -36 8 -58 12 -58 10
-92 31 -125 77 -54 74 -36 173 41 231 54 39 127 39 191 -2z m192 -47 c19 -19
19 -24 1 -49 -15 -19 -16 -19 -42 8 -27 26 -27 27 -8 42 25 18 30 18 49 -1z
m-489 -54 c3 -5 2 -10 -4 -10 -5 0 -13 5 -16 10 -3 6 -2 10 4 10 5 0 13 -4 16
-10z m405 -35 c-20 -24 -31 -18 -18 10 8 17 15 22 21 16 7 -7 6 -15 -3 -26z
m-407 -22 c-7 -2 -21 -2 -30 0 -10 3 -4 5 12 5 17 0 24 -2 18 -5z m497 -24 c0
-5 -6 -9 -14 -9 -15 0 -28 24 -19 34 7 7 33 -13 33 -25z m-62 -1 c-4 -29 -38
-38 -38 -10 0 19 11 29 33 31 5 1 7 -9 5 -21z m-61 -32 c-4 -9 -13 -16 -21
-16 -13 0 -14 4 -4 25 12 28 35 19 25 -9z m157 -1 c6 -17 -21 -48 -35 -40 -13
8 -11 29 3 43 16 16 25 15 32 -3z m-70 -42 c-17 -27 -34 -27 -34 0 0 27 19 40
35 25 6 -5 6 -14 -1 -25z m-60 2 c6 -17 -21 -48 -35 -40 -13 8 -11 29 3 43 16
16 25 15 32 -3z m200 -21 c8 -21 8 -24 -3 -24 -5 0 -11 9 -14 20 -6 24 8 27
17 4z m-264 -7 c0 -14 -20 -37 -32 -37 -4 0 -2 11 4 25 12 27 28 34 28 12z
m218 -9 c-4 -29 -38 -38 -38 -10 0 22 8 32 27 32 9 0 13 -8 11 -22z m-63 -8
c7 -11 -12 -40 -25 -40 -15 0 -21 33 -8 42 17 11 26 10 33 -2z m-65 -26 c0
-11 -5 -14 -16 -10 -9 3 -18 6 -20 6 -3 0 -2 5 1 10 10 16 35 12 35 -6z m230
-9 l23 -25 -32 0 c-35 0 -54 26 -30 41 8 5 14 9 15 9 0 0 11 -11 24 -25z m205
-15 c0 -22 -4 -25 -33 -23 -18 0 -45 4 -60 8 l-27 7 24 19 c17 14 36 19 60 17
31 -3 36 -7 36 -28z m-280 10 c3 -5 -3 -10 -15 -10 -12 0 -18 5 -15 10 3 6 10
10 15 10 5 0 12 -4 15 -10z m-223 -35 c-2 -11 -10 -27 -18 -35 -20 -20 -48 -2
-52 34 -3 26 -2 27 35 24 32 -2 37 -6 35 -23z m442 -119 c-17 -45 -94 27 -79
75 7 21 9 20 47 -18 27 -28 37 -44 32 -57z"/>
<path d="M1985 2798 c-25 -14 -35 -29 -28 -41 3 -4 13 -1 22 7 33 30 71 13 71
-31 0 -27 19 -32 21 -5 2 33 -2 47 -23 65 -23 20 -35 21 -63 5z"/>
<path d="M3438 2855 c-6 -14 -8 -28 -4 -33 9 -8 36 26 36 45 0 22 -20 14 -32
-12z"/>
<path d="M3920 2860 c0 -5 11 -26 25 -46 14 -20 25 -47 25 -60 0 -28 18 -41
26 -20 8 20 -12 78 -37 110 -21 26 -39 34 -39 16z"/>
<path d="M9917 2854 c-4 -4 -7 -20 -7 -36 0 -35 23 -34 28 1 4 25 -10 46 -21
35z"/>
<path d="M3782 2824 c-34 -18 -65 -54 -76 -91 -6 -20 -12 -21 -61 -16 -50 5
-56 4 -84 -25 -35 -34 -42 -84 -16 -118 19 -25 19 -35 0 -28 -8 4 -15 1 -15
-5 0 -6 10 -11 23 -11 23 -1 92 -50 70 -50 -7 0 -13 -7 -13 -15 0 -16 25 -21
34 -6 3 5 51 -15 107 -43 118 -60 112 -62 154 63 29 88 44 249 26 293 -21 54
-94 79 -149 52z m100 -34 c31 -24 40 -64 32 -136 -6 -48 -9 -54 -30 -54 -29 0
-144 -41 -179 -64 -14 -9 -25 -23 -25 -31 0 -25 -15 -17 -69 33 -43 41 -51 54
-51 84 0 28 7 42 26 57 33 26 50 26 92 1 18 -11 34 -20 36 -20 2 0 6 19 10 41
9 54 61 109 104 109 16 0 41 -9 54 -20z m18 -219 c0 -5 -6 -14 -14 -20 -16
-13 -32 2 -21 19 8 12 35 13 35 1z m-57 -31 c6 -24 -12 -38 -24 -19 -13 21
-11 39 5 39 7 0 16 -9 19 -20z m-53 -9 c0 -5 3 -16 6 -25 9 -23 -23 -20 -35 3
-6 10 -7 21 -4 25 10 9 33 7 33 -3z m-50 -48 c0 -16 -26 -17 -35 -3 -4 6 -1
18 6 26 10 12 14 12 20 2 5 -7 9 -19 9 -25z m130 -27 c-12 -31 -24 -56 -28
-56 -4 1 -27 11 -51 24 l-44 23 39 16 c22 9 53 25 69 35 17 11 31 18 33 17 1
-1 -7 -28 -18 -59z"/>
<path d="M3796 2668 c-15 -21 -13 -38 3 -38 5 0 11 9 14 21 4 16 11 19 26 14
15 -5 21 -2 21 9 0 24 -46 20 -64 -6z"/>
<path d="M3670 2613 c-19 -8 -30 -23 -30 -45 0 -24 16 -23 23 2 3 12 14 20 27
20 12 0 20 5 18 12 -5 14 -18 18 -38 11z"/>
<path d="M3411 2778 c-5 -13 -5 -27 0 -32 11 -12 16 -7 24 27 9 33 -12 38 -24
5z"/>
<path d="M9904 2745 c-7 -29 -1 -41 15 -30 14 8 14 55 1 55 -5 0 -12 -11 -16
-25z"/>
<path d="M10370 2751 c-79 -16 -157 -85 -180 -157 -7 -22 -16 -44 -21 -50 -5
-6 -6 -14 -3 -17 4 -3 -13 -91 -36 -195 l-43 -190 -29 10 c-15 6 -30 14 -33
18 -10 17 54 171 79 191 35 27 43 80 21 129 -21 47 -14 90 15 90 29 0 25 19
-6 31 -89 33 -195 -100 -165 -207 9 -32 7 -53 -10 -115 -19 -69 -22 -76 -43
-72 -30 6 -109 -80 -129 -140 -13 -39 -16 -42 -59 -48 -50 -8 -78 -20 -97 -43
-12 -14 -16 -13 -43 5 -118 84 -280 -40 -228 -175 9 -24 7 -26 -32 -37 -25 -6
-58 -26 -79 -48 -109 -109 -48 -290 107 -316 35 -5 42 -11 53 -41 15 -42 74
-84 129 -91 78 -11 162 49 178 129 6 26 7 26 40 12 70 -29 151 -6 186 53 11
18 24 33 28 33 4 0 25 36 45 79 l37 79 54 -24 c30 -13 56 -24 59 -24 2 0 18
32 36 70 25 55 36 69 48 64 55 -23 71 -27 77 -21 4 3 2 46 -5 94 -6 49 -10
122 -8 163 4 66 8 82 41 133 20 32 41 55 46 52 6 -4 5 -14 -2 -25 -7 -11 -10
-21 -8 -23 24 -22 166 -107 174 -104 6 2 9 22 8 45 -3 40 -3 41 37 53 23 7 41
16 41 21 0 4 -22 24 -50 44 -41 29 -49 40 -44 59 5 19 -4 29 -58 67 -35 24
-68 47 -75 51 -8 5 -41 -41 -99 -138 -63 -105 -92 -145 -106 -145 -10 0 -21 6
-24 13 -3 8 21 118 52 246 68 280 77 296 169 296 51 0 59 -3 86 -33 31 -34 37
-58 17 -65 -7 -2 -5 -3 4 -2 10 2 19 -6 23 -22 11 -47 81 -47 103 1 7 17 5 36
-8 75 -38 114 -158 185 -270 162z m80 -42 c7 -11 9 -27 6 -35 -7 -18 -36 -7
-36 15 0 9 -5 22 -12 29 -9 9 -7 12 10 12 12 0 26 -9 32 -21z m-60 -10 c13
-23 13 -24 -16 -33 -16 -5 -26 0 -37 18 -15 23 -15 25 1 29 33 9 41 7 52 -14z
m140 -11 c0 -5 -5 -18 -10 -28 -16 -29 -40 -13 -40 26 0 32 1 33 25 22 14 -6
25 -15 25 -20z m-215 -18 c27 -30 6 -48 -29 -25 -21 14 -24 20 -15 31 15 19
23 18 44 -6z m251 -45 c-23 -36 -40 -19 -24 23 11 28 14 30 27 18 12 -13 12
-18 -3 -41z m-293 -3 c23 -25 7 -48 -22 -33 -23 13 -23 13 -15 35 8 21 17 20
37 -2z m336 -24 c10 -27 -3 -48 -30 -48 -24 0 -24 14 -1 45 21 30 21 30 31 3z
m-521 -39 c-8 -25 -7 -38 6 -65 22 -48 20 -87 -5 -110 -22 -19 -22 -19 -11 2
16 31 2 38 -24 13 -27 -26 -51 -19 -60 16 -11 46 6 97 46 137 47 47 63 50 48
7z m162 1 c19 -14 22 -22 14 -30 -15 -15 -54 8 -54 32 0 23 9 22 40 -2z m380
-29 c0 -16 -30 -33 -47 -26 -16 6 -15 8 7 20 29 17 40 18 40 6z m-384 -46 c3
-8 2 -21 -3 -29 -13 -24 -54 12 -47 41 5 19 9 21 26 12 10 -6 22 -16 24 -24z
m-33 -60 c10 -7 17 -21 15 -30 -3 -14 -5 -14 -25 0 -13 9 -23 23 -23 31 0 17
10 17 33 -1z m-11 -62 c9 -10 13 -26 9 -36 -6 -15 -8 -16 -28 -2 -14 10 -19
22 -16 35 7 25 15 25 35 3z m-152 -29 c0 -10 -7 -14 -22 -12 -32 5 -35 28 -4
28 17 0 26 -5 26 -16z m428 -39 c28 -20 52 -38 52 -41 0 -8 -51 -94 -56 -94
-2 0 -28 16 -58 36 l-54 35 15 30 c15 30 17 30 65 -3 14 -10 31 -18 37 -18 22
0 10 18 -29 45 -37 26 -51 45 -32 45 4 0 31 -16 60 -35z m-296 -2 c10 -9 18
-22 18 -30 0 -11 -5 -10 -25 3 -14 9 -25 23 -25 30 0 18 9 18 32 -3z m-158 -2
c9 -14 -24 -101 -38 -101 -23 0 -24 11 -8 61 15 45 33 62 46 40z m159 -87 c-6
-17 -8 -17 -31 -3 -13 8 -17 20 -14 36 l5 24 23 -22 c12 -11 20 -27 17 -35z
m180 0 c3 -4 -7 -26 -23 -50 -17 -23 -30 -45 -30 -49 0 -3 -7 -17 -16 -30 -25
-39 -36 -19 -12 23 12 20 30 54 41 75 21 37 28 43 40 31z m220 -37 c22 -18 22
-27 -2 -27 -25 0 -36 -18 -32 -54 1 -15 -1 -27 -6 -25 -26 11 -122 75 -123 82
0 11 28 9 35 -3 10 -16 45 -12 45 5 0 11 7 14 25 9 25 -6 35 8 15 21 -5 3 -10
11 -10 16 0 10 21 1 53 -24z m-653 15 c0 -4 -13 -23 -29 -42 -33 -41 -71 -112
-71 -135 0 -16 -26 -32 -36 -22 -15 14 28 117 67 160 36 42 69 60 69 39z m228
-14 c20 -20 13 -28 -13 -16 -14 6 -25 15 -25 20 0 12 24 10 38 -4z m60 -118
l73 -33 -3 -61 c-1 -34 1 -92 6 -129 l9 -69 -31 16 c-17 9 -36 16 -42 16 -6 0
-25 -29 -41 -65 -17 -36 -35 -65 -41 -65 -5 0 -32 10 -59 21 -27 12 -51 20
-52 18 -1 -2 -16 -33 -32 -69 -38 -85 -38 -85 -77 -67 -18 8 -60 28 -93 43
-59 28 -60 28 -27 32 27 3 34 8 39 33 6 34 10 35 42 13 22 -15 24 -15 44 4 19
20 19 22 4 46 -22 33 -22 33 13 41 25 5 30 12 30 35 0 23 -5 30 -30 35 -35 8
-35 8 -13 41 15 24 15 26 -5 47 -20 20 -22 20 -40 4 -30 -28 -42 -21 -42 25 0
50 27 109 75 166 l36 41 92 -43 c51 -23 125 -57 165 -76z m-77 73 c13 -15 12
-15 -8 -4 -24 12 -29 21 -14 21 5 0 15 -7 22 -17z m-381 -163 c0 -40 0 -40
-23 -25 -22 14 -25 13 -45 -7 -18 -20 -19 -25 -6 -42 20 -28 18 -34 -16 -41
-25 -5 -30 -12 -30 -35 0 -23 5 -30 30 -35 34 -8 36 -12 15 -42 -14 -21 -14
-24 5 -43 20 -20 23 -21 47 -5 33 22 38 14 18 -25 -12 -23 -13 -35 -5 -45 8
-9 8 -15 0 -20 -21 -13 -9 -23 18 -13 23 9 39 5 100 -23 l74 -34 -24 -35 c-42
-62 -136 -72 -183 -20 -29 32 -42 25 -42 -24 0 -149 -203 -188 -264 -52 -18
41 -22 44 -65 49 -81 9 -135 65 -142 149 -3 44 0 59 20 88 33 49 83 80 129 80
42 0 48 12 24 44 -9 11 -15 41 -15 69 0 42 5 54 34 83 30 30 40 34 84 34 39 0
57 -6 80 -25 34 -28 47 -31 59 -12 15 25 58 47 90 47 32 0 33 -1 33 -40z m56
-27 c-10 -10 -19 5 -10 18 6 11 8 11 12 0 2 -7 1 -15 -2 -18z m-86 -34 c0 -5
-4 -9 -10 -9 -5 0 -10 7 -10 16 0 8 5 12 10 9 6 -3 10 -10 10 -16z m185 1 c-3
-5 -10 -10 -16 -10 -5 0 -9 5 -9 10 0 6 7 10 16 10 8 0 12 -4 9 -10z m-40 -25
c38 -39 35 -95 -7 -130 -56 -48 -134 -16 -143 59 -4 32 0 42 24 67 39 38 89
40 126 4z m-175 -65 c0 -5 -7 -10 -15 -10 -8 0 -15 5 -15 10 0 6 7 10 15 10 8
0 15 -4 15 -10z m260 0 c0 -5 -7 -10 -15 -10 -8 0 -15 5 -15 10 0 6 7 10 15
10 8 0 15 -4 15 -10z m-230 -89 c0 -6 -4 -13 -10 -16 -5 -3 -10 1 -10 9 0 9 5
16 10 16 6 0 10 -4 10 -9z m185 -1 c3 -5 -1 -10 -9 -10 -9 0 -16 5 -16 10 0 6
4 10 9 10 6 0 13 -4 16 -10z m-95 -41 c0 -11 -4 -17 -10 -14 -5 3 -10 13 -10
21 0 8 5 14 10 14 6 0 10 -9 10 -21z"/>
<path d="M10076 2463 c-12 -12 -6 -33 9 -33 8 0 15 6 15 14 0 17 -14 28 -24
19z"/>
<path d="M10142 1988 c-13 -13 -16 -38 -5 -38 3 0 15 8 25 17 25 22 52 7 56
-31 4 -29 25 -31 30 -2 6 32 -25 66 -61 66 -18 0 -38 -5 -45 -12z"/>
<path d="M9313 1710 c-57 -34 -82 -120 -49 -166 20 -26 31 -11 18 25 -6 16 -8
40 -5 53 8 33 51 76 84 83 16 4 29 11 29 16 0 16 -44 10 -77 -11z"/>
<path d="M9319 1491 c24 -21 71 -29 71 -12 0 14 -10 18 -55 26 l-40 6 24 -20z"/>
<path d="M9778 1869 c-49 -28 -42 -97 12 -119 32 -13 63 -2 80 30 33 62 -31
125 -92 89z m67 -53 c0 -36 -27 -56 -52 -40 -40 25 -20 77 26 72 21 -2 26 -8
26 -32z"/>
<path d="M3397 2698 c-7 -23 -1 -38 14 -38 5 0 9 14 9 30 0 35 -15 40 -23 8z"/>
<path d="M7547 2694 c-16 -16 -5 -25 26 -22 17 2 31 8 30 13 -3 12 -46 19 -56
9z"/>
<path d="M9894 2689 c-17 -22 -24 -48 -14 -54 12 -7 32 31 28 52 -3 14 -5 14
-14 2z"/>
<path d="M3972 2674 c4 -21 22 -23 26 -1 2 10 -3 17 -13 17 -10 0 -15 -6 -13
-16z"/>
<path d="M7473 2683 c-20 -7 -15 -23 6 -23 28 0 52 11 45 21 -6 10 -31 11 -51
2z"/>
<path d="M7622 2678 c6 -16 33 -22 56 -13 14 5 14 7 2 15 -22 14 -62 12 -58
-2z"/>
<path d="M7401 2659 c-16 -6 -21 -13 -14 -20 12 -12 63 5 63 21 0 12 -17 12
-49 -1z"/>
<path d="M7700 2660 c0 -9 40 -30 56 -30 12 0 2 29 -12 34 -24 9 -44 7 -44 -4z"/>
<path d="M3398 2635 c-9 -9 4 -56 14 -53 5 2 9 7 9 11 -1 4 -1 16 -1 27 0 19
-11 26 -22 15z"/>
<path d="M7343 2627 c-13 -5 -23 -16 -23 -24 0 -18 14 -16 41 5 26 22 14 34
-18 19z"/>
<path d="M7775 2631 c-5 -9 31 -41 47 -41 14 0 8 23 -9 36 -22 16 -30 17 -38
5z"/>
<path d="M9032 2603 c-22 -41 -102 -224 -102 -233 0 -5 20 -20 45 -32 33 -17
42 -26 35 -37 -7 -13 -14 -12 -51 2 -29 11 -46 14 -53 7 -28 -28 -43 13 -17
46 11 14 23 39 26 56 4 17 16 45 26 62 10 17 19 37 19 44 0 21 -18 13 -32 -15
-15 -30 -27 -36 -47 -24 -12 8 -13 14 -3 36 7 15 10 31 6 36 -9 16 -32 -9 -40
-44 -3 -17 -13 -42 -21 -54 -35 -52 -20 -176 24 -209 16 -11 14 -20 -30 -120
-35 -79 -44 -110 -36 -120 16 -19 1 -57 -19 -49 -49 19 -73 17 -97 -5 -14 -13
-25 -27 -25 -30 0 -9 137 -70 156 -70 8 0 26 24 40 53 15 28 28 54 30 56 3 4
64 -19 64 -24 0 -1 -11 -28 -25 -59 -14 -31 -25 -59 -25 -62 0 -7 142 -74 157
-74 18 0 25 35 12 63 -6 14 -25 31 -40 38 -16 6 -29 13 -29 16 0 15 23 43 36
43 10 0 34 40 65 108 l50 107 49 0 c40 0 54 5 77 28 16 15 34 27 40 27 5 0 18
19 28 43 11 23 27 54 37 69 19 27 24 58 10 58 -5 0 -14 -11 -20 -25 -12 -25
-45 -34 -57 -15 -3 5 1 23 10 39 21 42 0 50 -24 10 -11 -17 -17 -38 -14 -45 3
-8 0 -14 -6 -14 -7 0 -23 -25 -37 -55 -18 -39 -31 -55 -45 -55 -10 0 -19 7
-19 15 0 8 -20 25 -45 37 -33 17 -42 27 -36 37 8 12 16 12 56 -3 25 -10 48
-16 51 -14 2 3 29 60 59 128 52 115 54 123 38 136 -10 7 -21 14 -24 14 -4 0
-23 7 -43 15 -31 13 -35 18 -27 34 14 26 1 34 -21 15 -16 -16 -21 -15 -65 2
-26 10 -51 20 -55 22 -4 2 -11 -5 -16 -15z m156 -73 c85 -39 84 -30 23 -164
l-40 -86 -58 26 c-32 14 -79 35 -105 46 -27 11 -48 23 -48 26 0 2 21 51 46
108 l46 103 32 -13 c17 -7 64 -28 104 -46z m-309 -99 c15 -10 6 -51 -12 -51
-24 0 -36 16 -30 38 6 23 19 27 42 13z m-32 -85 c-3 -8 3 -32 13 -53 l20 -38
-25 28 c-25 29 -34 77 -14 77 6 0 9 -6 6 -14z m204 -69 c-13 -13 -26 -3 -16
12 3 6 11 8 17 5 6 -4 6 -10 -1 -17z m32 -59 c26 -11 47 -24 47 -29 0 -5 -11
-33 -24 -63 l-24 -55 -106 47 c-58 25 -106 49 -106 53 0 3 12 32 26 62 l25 56
57 -25 c31 -14 78 -35 105 -46z m208 32 c15 -9 17 -15 9 -30 -12 -22 -18 -24
-39 -11 -8 5 -11 16 -6 30 7 24 9 25 36 11z m-58 -91 c-28 -19 -83 -26 -83
-11 0 5 12 7 28 5 17 -3 34 2 47 15 11 11 24 17 28 15 5 -3 -4 -14 -20 -24z
m-265 -65 c48 -21 90 -40 94 -43 6 -5 -34 -106 -46 -119 -4 -3 -193 82 -202
91 -4 4 4 31 16 62 16 39 27 54 37 51 7 -3 53 -22 101 -42z m-140 -139 c-6
-14 -15 -25 -20 -25 -11 0 -10 7 2 31 16 28 32 23 18 -6z m-63 -32 c30 -14 49
-43 28 -43 -17 0 -113 44 -113 52 0 14 48 9 85 -9z m199 -25 c-8 -27 -12 -33
-19 -27 -7 8 7 49 17 49 5 0 6 -10 2 -22z m10 -69 c42 -18 66 -42 54 -54 -2
-2 -29 8 -60 22 -38 17 -55 30 -51 39 6 17 2 18 57 -7z"/>
<path d="M9042 2538 c-22 -29 -23 -57 -3 -77 23 -23 43 -26 72 -11 16 9 19 7
19 -8 0 -46 68 -59 95 -18 13 19 14 29 5 45 -16 30 -46 44 -69 31 -27 -14 -31
-13 -31 8 0 10 -5 23 -12 30 -16 16 -63 15 -76 0z m68 -43 c0 -8 -4 -16 -9
-19 -5 -3 -8 5 -8 19 0 14 3 22 8 19 5 -3 9 -11 9 -19z m95 -45 c0 -13 -4 -25
-10 -27 -5 -1 -10 11 -10 27 0 17 5 29 10 27 6 -2 10 -14 10 -27z"/>
<path d="M8988 2415 c-7 -16 -8 -29 -2 -34 11 -11 176 -83 179 -79 6 8 25 47
25 53 0 7 -167 85 -181 85 -5 0 -15 -11 -21 -25z m101 -38 c39 -19 69 -36 65
-39 -3 -3 -32 7 -65 23 -32 16 -64 29 -69 29 -6 0 -10 5 -10 10 0 14 0 14 79
-23z"/>
<path d="M8902 2214 c-7 -14 -11 -28 -10 -30 5 -4 179 -84 184 -84 2 0 10 14
19 30 l16 30 -78 35 c-109 50 -117 51 -131 19z m57 -15 c17 -6 31 -15 31 -20
0 -5 -2 -9 -3 -9 -8 0 -67 32 -67 36 0 6 3 5 39 -7z m79 -35 c18 -8 32 -19 32
-24 0 -10 -57 17 -65 31 -8 12 -3 11 33 -7z"/>
<path d="M8850 2081 c-8 -17 -7 -24 10 -41 28 -28 63 -11 58 28 -4 35 -51 44
-68 13z m41 -24 c-13 -13 -26 -3 -16 12 3 6 11 8 17 5 6 -4 6 -10 -1 -17z"/>
<path d="M8965 2047 c-26 -20 -13 -67 18 -67 43 0 60 35 31 64 -19 19 -25 20
-49 3z m35 -32 c0 -8 -4 -15 -9 -15 -13 0 -22 16 -14 24 11 11 23 6 23 -9z"/>
<path d="M9210 2611 c0 -10 51 -22 63 -14 4 2 5 9 2 14 -8 12 -65 12 -65 0z"/>
<path d="M9846 2598 c-21 -30 -7 -47 16 -19 10 13 18 27 18 32 0 16 -19 9 -34
-13z"/>
<path d="M9290 2592 c0 -13 49 -36 57 -28 5 4 -1 14 -11 22 -22 15 -46 19 -46
6z"/>
<path d="M9551 2586 c-17 -20 3 -30 29 -14 11 7 20 16 20 20 0 14 -37 9 -49
-6z"/>
<path d="M9620 2592 c0 -12 49 -37 56 -29 11 10 -17 37 -37 37 -11 0 -19 -4
-19 -8z"/>
<path d="M7252 2544 c-41 -44 -53 -74 -31 -74 6 0 16 14 22 30 6 17 15 30 20
30 10 0 46 41 47 53 0 17 -20 4 -58 -39z"/>
<path d="M7840 2583 c1 -17 40 -54 50 -48 8 5 4 15 -11 31 -22 24 -39 31 -39
17z"/>
<path d="M3410 2551 c0 -5 9 -19 20 -32 15 -19 19 -21 20 -7 0 27 -11 48 -26
48 -8 0 -14 -4 -14 -9z"/>
<path d="M9355 2550 c-7 -11 21 -50 37 -50 15 0 8 27 -11 44 -13 12 -21 14
-26 6z"/>
<path d="M9797 2542 c-21 -22 -21 -32 -4 -32 18 0 49 34 40 43 -10 11 -19 8
-36 -11z"/>
<path d="M9520 2536 c0 -22 11 -46 21 -46 5 0 9 14 9 30 0 20 -5 30 -15 30 -8
0 -15 -6 -15 -14z"/>
<path d="M9685 2523 c8 -33 11 -37 23 -29 14 9 2 56 -15 56 -12 0 -13 -7 -8
-27z"/>
<path d="M1848 2533 c7 -3 16 -2 19 1 4 3 -2 6 -13 5 -11 0 -14 -3 -6 -6z"/>
<path d="M7900 2517 c0 -19 27 -53 36 -45 9 10 -12 58 -26 58 -5 0 -10 -6 -10
-13z"/>
<path d="M9730 2489 c-14 -10 -35 -19 -47 -19 -28 0 -53 -10 -53 -21 0 -5 9
-9 20 -9 11 0 20 -7 20 -15 0 -23 19 -18 32 9 6 14 24 30 39 37 16 6 29 15 29
20 0 17 -17 17 -40 -2z"/>
<path d="M1190 2491 c0 -5 35 -32 79 -60 67 -42 79 -54 79 -77 0 -30 33 -64
62 -64 10 0 23 -7 31 -16 10 -12 23 -14 58 -9 70 10 83 27 75 94 -3 32 -14 64
-24 74 -29 31 -151 57 -175 37 -11 -9 -30 -7 -88 9 -82 23 -97 25 -97 12z
m260 -46 c7 -8 25 -15 41 -15 35 0 59 -24 58 -58 0 -15 1 -36 3 -47 2 -16 -2
-20 -22 -19 -13 1 -31 -6 -39 -14 -13 -13 -17 -12 -33 8 -11 13 -24 20 -33 16
-21 -8 -55 29 -55 59 0 19 -10 31 -35 47 -41 23 -41 34 -1 18 21 -8 32 -7 49
5 27 19 51 19 67 0z"/>
<path d="M3460 2485 c0 -15 38 -40 47 -31 7 7 -26 46 -39 46 -4 0 -8 -7 -8
-15z"/>
<path d="M9410 2477 c0 -18 28 -42 37 -33 9 8 -9 38 -25 44 -7 2 -12 -3 -12
-11z"/>
<path d="M7620 2472 c-14 -2 -31 -9 -38 -14 -7 -6 -40 -11 -73 -12 -57 -1 -63
-4 -95 -38 -29 -32 -34 -45 -34 -88 0 -40 5 -55 29 -83 l30 -33 -93 -93 -93
-92 -17 25 c-9 14 -21 26 -26 26 -16 0 -11 -25 9 -47 19 -20 19 -21 -140 -179
-87 -87 -159 -160 -159 -163 0 -9 13 -24 38 -45 21 -19 23 -19 42 -1 21 19 22
18 61 -24 l41 -43 29 28 c16 15 29 34 29 41 0 7 6 13 13 13 7 0 31 18 52 40
l39 40 -42 43 -42 43 59 58 c58 57 60 58 82 42 13 -9 27 -16 31 -16 16 0 7 26
-13 39 -21 12 -19 16 71 106 l94 94 33 -30 c28 -24 43 -29 83 -29 43 0 56 5
88 34 34 32 37 38 37 93 1 32 6 68 13 80 7 12 12 41 12 65 0 77 -69 132 -150
120z m89 -48 c42 -35 50 -83 22 -130 -12 -19 -18 -40 -15 -45 12 -20 6 -77
-11 -103 -21 -32 -84 -53 -111 -38 -16 10 -16 11 -3 12 23 0 45 38 52 85 3 22
8 52 12 67 6 22 1 33 -24 59 -28 27 -36 30 -64 24 -18 -4 -43 -9 -57 -10 -45
-3 -70 -16 -84 -43 -13 -25 -14 -25 -20 -4 -23 70 62 148 131 121 19 -7 30 -5
50 11 36 28 85 26 122 -6z m-94 -114 c17 -18 17 -25 6 -55 -7 -19 -10 -39 -7
-44 10 -16 -12 -59 -33 -66 -13 -4 -33 1 -51 12 l-30 17 -175 -174 c-96 -96
-175 -179 -175 -184 0 -6 17 -27 37 -48 36 -37 36 -38 18 -58 l-18 -20 -22 20
-22 20 -26 -21 c-32 -24 -33 -33 -8 -58 17 -17 18 -21 6 -31 -12 -10 -23 -4
-55 30 -40 41 -41 42 -61 24 -15 -14 -22 -15 -31 -6 -10 10 46 70 247 272
l260 260 -18 30 c-30 50 2 98 57 84 13 -3 27 -1 30 5 11 18 52 12 71 -9z
m-460 -630 c3 -5 -1 -10 -9 -10 -9 0 -16 5 -16 10 0 6 4 10 9 10 6 0 13 -4 16
-10z"/>
<path d="M9560 2470 c0 -16 41 -33 53 -21 7 7 2 13 -17 21 -34 12 -36 12 -36
0z"/>
<path d="M3533 2448 c2 -7 14 -13 27 -13 13 0 25 6 28 13 2 8 -7 12 -28 12
-21 0 -30 -4 -27 -12z"/>
<path d="M7180 2441 c-14 -27 -13 -41 4 -41 12 0 25 28 26 53 0 14 -20 7 -30
-12z"/>
<path d="M7940 2447 c0 -19 27 -53 36 -45 9 10 -12 58 -26 58 -5 0 -10 -6 -10
-13z"/>
<path d="M9460 2421 c0 -14 42 -41 52 -35 12 8 -21 44 -39 44 -7 0 -13 -4 -13
-9z"/>
<path d="M9633 2397 c-13 -5 -23 -16 -23 -24 0 -18 14 -16 41 5 26 22 14 34
-18 19z"/>
<path d="M7970 2361 c0 -28 15 -49 27 -38 8 8 -7 67 -18 67 -5 0 -9 -13 -9
-29z"/>
<path d="M9532 2378 c5 -15 58 -24 58 -10 0 5 -10 12 -22 16 -34 9 -40 7 -36
-6z"/>
<path d="M7154 2355 c-7 -29 -1 -41 15 -30 14 8 14 55 1 55 -5 0 -12 -11 -16
-25z"/>
<path d="M7986 2303 c-9 -10 -7 -93 3 -93 12 0 21 26 21 60 0 29 -12 45 -24
33z"/>
<path d="M7144 2285 c-8 -19 2 -45 16 -45 5 0 10 14 10 30 0 31 -16 41 -26 15z"/>
<path d="M7152 2194 c2 -15 9 -29 16 -32 10 -3 13 4 10 24 -2 15 -9 29 -16 32
-10 3 -13 -4 -10 -24z"/>
<path d="M8047 2194 c-37 -24 -39 -25 -52 -7 -13 17 -15 16 -25 -15 -10 -27
-33 -45 -131 -103 -65 -40 -119 -77 -119 -83 0 -6 16 -22 35 -35 33 -22 34
-25 20 -41 -20 -22 -3 -35 23 -19 16 10 25 8 50 -9 27 -20 43 -22 171 -22
l141 0 -6 43 c-3 23 -13 103 -23 177 -18 151 -21 155 -84 114z m13 -46 c-5
-13 -19 -50 -32 -83 l-24 -60 -109 -1 c-104 -1 -108 0 -86 15 23 16 254 150
258 151 1 0 -2 -10 -7 -22z m50 -113 c6 -44 14 -91 16 -104 5 -22 0 -20 -45
19 -28 23 -51 46 -51 50 0 19 63 144 66 130 1 -8 8 -51 14 -95z m-59 -96 c27
-22 49 -45 49 -51 0 -7 -39 -9 -107 -6 l-108 3 -52 40 c-28 22 -52 43 -52 48
-1 4 49 7 110 7 l111 0 49 -41z"/>
<path d="M1543 2139 c-15 -15 -17 -69 -3 -69 11 0 23 41 18 65 -2 13 -5 14
-15 4z"/>
<path d="M7170 2123 c0 -10 5 -25 10 -33 14 -22 30 0 19 28 -10 26 -29 29 -29
5z"/>
<path d="M1330 2098 c1 -20 38 -64 47 -55 9 10 -17 59 -34 65 -7 2 -13 -2 -13
-10z"/>
<path d="M1681 2001 c-15 -12 -20 -21 -13 -25 13 -8 43 6 62 28 10 14 10 16
-6 16 -11 0 -30 -9 -43 -19z"/>
<path d="M494 1977 c-3 -8 -4 -39 -2 -68 3 -50 5 -54 30 -57 16 -2 30 -11 33
-23 8 -25 25 -25 25 0 0 13 8 21 23 23 20 3 22 8 22 68 l0 65 -63 3 c-47 2
-64 -1 -68 -11z m106 -57 l0 -40 -40 0 -40 0 0 40 0 40 40 0 40 0 0 -40z"/>
<path d="M1210 1927 c0 -17 53 -33 71 -22 15 10 0 22 -38 30 -26 5 -33 3 -33
-8z"/>
<path d="M7375 1900 c-9 -15 44 -45 57 -32 7 7 1 15 -20 26 -18 9 -33 12 -37
6z"/>
<path d="M7708 1883 c-15 -4 -27 -33 -14 -33 16 0 56 21 56 30 0 10 -12 11
-42 3z"/>
<path d="M7454 1868 c-4 -6 0 -14 7 -19 18 -11 50 -7 49 6 -1 14 -49 25 -56
13z"/>
<path d="M7628 1863 c-31 -8 -19 -24 15 -21 17 2 31 8 30 13 -2 12 -21 15 -45
8z"/>
<path d="M7532 1848 c5 -15 57 -18 61 -3 1 6 -13 11 -32 13 -24 3 -32 0 -29
-10z"/>
<path d="M1696 1822 c-8 -13 0 -18 42 -27 25 -5 32 -3 32 9 0 9 -6 16 -12 16
-7 0 -23 3 -34 6 -12 3 -25 1 -28 -4z"/>
<path d="M1850 1806 c0 -8 15 -23 32 -35 32 -20 33 -20 64 -2 31 18 32 18 60
0 28 -18 29 -18 58 1 29 18 30 18 58 -1 28 -20 28 -20 56 0 28 19 29 19 57 1
27 -18 45 -18 45 -1 0 4 -17 17 -37 28 l-38 21 -27 -20 -28 -20 -28 21 c-28
19 -29 20 -59 1 -30 -18 -31 -18 -59 0 -27 19 -29 19 -59 0 -30 -18 -31 -18
-55 0 -30 23 -40 25 -40 6z"/>
<path d="M568 1794 c-7 -11 7 -50 21 -59 16 -9 14 28 -2 50 -8 10 -16 14 -19
9z"/>
<path d="M1273 1743 c-21 -14 -32 -43 -17 -43 15 0 64 42 59 51 -8 12 -16 11
-42 -8z"/>
<path d="M745 1737 c-11 -9 -14 -16 -7 -21 15 -9 65 12 57 24 -9 14 -28 13
-50 -3z"/>
<path d="M810 1733 c0 -5 9 -19 19 -32 13 -17 20 -20 26 -12 4 7 -1 21 -11 32
-17 19 -34 25 -34 12z"/>
<path d="M600 1712 c0 -13 39 -46 46 -40 8 9 -19 48 -33 48 -7 0 -13 -4 -13
-8z"/>
<path d="M700 1686 c-7 -19 -15 -26 -25 -22 -9 3 -15 0 -15 -10 0 -8 7 -17 15
-20 8 -4 15 -14 15 -24 0 -26 10 -50 22 -50 5 0 7 19 5 43 -2 23 0 53 5 66 5
15 5 28 -1 34 -7 7 -14 1 -21 -17z"/>
<path d="M8380 1626 c-21 -46 -46 -100 -54 -120 l-15 -36 -36 17 c-29 14 -40
15 -55 5 -11 -6 -21 -8 -24 -3 -8 13 -137 24 -148 13 -10 -10 87 -102 109
-102 6 0 13 -10 15 -22 2 -16 13 -25 38 -32 19 -5 36 -10 38 -12 2 -1 -20 -57
-49 -124 -30 -70 -48 -125 -43 -130 16 -16 114 -50 143 -50 16 0 83 27 149 60
l122 59 67 -30 c58 -27 76 -30 126 -26 106 9 134 67 77 157 -25 39 -40 51
-101 75 -39 17 -74 37 -79 45 -4 8 -22 65 -40 125 -18 61 -42 123 -53 139 -18
25 -110 76 -138 76 -6 0 -28 -38 -49 -84z m111 32 c46 -24 74 -63 89 -123 6
-22 19 -66 30 -97 10 -32 16 -58 12 -58 -4 0 -35 12 -70 27 -43 18 -61 31 -60
42 3 14 -65 56 -117 74 -11 4 53 157 66 157 5 0 27 -10 50 -22z m-78 -182 c57
-23 57 -21 -5 -155 l-43 -90 -50 21 c-27 12 -51 23 -53 24 -2 1 6 25 18 53
l22 50 29 -14 c33 -18 49 -19 49 -5 0 6 -15 18 -34 26 l-34 17 22 48 c11 27
23 47 26 46 3 -1 27 -11 53 -21z m-230 -15 c11 -11 1 -31 -16 -31 -7 1 -25 12
-42 26 l-30 24 39 -4 c21 -3 43 -9 49 -15z m97 -6 c27 -32 -15 -101 -54 -89
-30 9 -30 8 -11 58 19 48 42 59 65 31z m350 -110 c74 -31 138 -60 142 -63 6
-7 -46 -139 -61 -155 -4 -4 -50 11 -102 34 -132 57 -199 88 -199 92 0 4 38 88
50 109 6 10 10 25 10 34 0 9 6 14 13 11 6 -3 73 -31 147 -62z m213 -187 c-6
-14 -26 -25 -56 -33 -55 -14 -54 -16 -10 82 l25 55 25 -42 c19 -32 23 -47 16
-62z m-525 65 c52 -22 65 -24 72 -13 7 11 21 8 74 -14 36 -16 66 -30 66 -31 0
-2 -45 -26 -100 -54 -99 -50 -170 -66 -185 -41 -3 6 -14 10 -23 10 -42 1 -43
14 -10 93 17 42 34 77 37 77 3 0 34 -12 69 -27z"/>
<path d="M8670 1285 c0 -8 4 -15 9 -15 5 0 13 -10 16 -21 8 -25 -14 -51 -44
-53 -32 -2 -30 -21 2 -24 17 -2 37 4 48 14 24 22 25 76 1 97 -23 21 -32 21
-32 2z"/>
<path d="M1917 1656 c-27 -40 -30 -72 -12 -110 21 -44 37 -45 64 -7 25 34 27
88 5 119 -20 28 -38 28 -57 -2z m53 -56 c0 -8 -7 -26 -16 -39 -13 -18 -18 -20
-25 -10 -12 19 -11 57 2 81 11 21 12 21 25 3 8 -10 14 -26 14 -35z"/>
<path d="M826 1651 c-24 -27 -11 -48 15 -25 19 17 26 44 11 44 -5 0 -17 -9
-26 -19z"/>
<path d="M1426 1644 c-9 -24 -7 -64 3 -64 11 0 21 25 21 56 0 27 -15 32 -24 8z"/>
<path d="M10374 1615 c-6 -36 -28 -55 -62 -55 -23 0 -37 -38 -21 -56 6 -7 22
-14 36 -16 28 -3 38 -17 48 -61 5 -24 10 -28 33 -25 21 2 28 10 35 41 7 29 15
38 36 43 49 11 52 13 49 41 -2 22 -9 29 -32 33 -30 5 -39 16 -56 63 -7 19 -16
27 -34 27 -21 0 -26 -6 -32 -35z m46 -4 c0 -6 -4 -13 -10 -16 -5 -3 -10 1 -10
9 0 9 5 16 10 16 6 0 10 -4 10 -9z m20 -56 c26 -32 -13 -81 -47 -59 -35 22
-23 74 17 74 10 0 23 -7 30 -15z m-100 -30 c0 -9 -6 -12 -15 -9 -8 4 -12 10
-9 15 8 14 24 10 24 -6z m164 6 c3 -5 -1 -11 -9 -15 -9 -3 -15 0 -15 9 0 16
16 20 24 6z m-84 -86 c0 -8 -4 -15 -10 -15 -5 0 -10 7 -10 15 0 8 5 15 10 15
6 0 10 -7 10 -15z"/>
<path d="M730 1621 c0 -10 24 -21 46 -21 8 0 14 7 14 15 0 10 -10 15 -30 15
-16 0 -30 -4 -30 -9z"/>
<path d="M6325 1523 c-93 -24 -171 -45 -172 -47 -2 -2 -83 -578 -83 -592 0 -2
13 -4 30 -4 19 0 34 -7 42 -20 17 -26 24 -26 170 10 67 17 132 30 143 30 11 0
73 -17 139 -37 l118 -37 20 27 c12 16 29 27 44 27 28 0 31 11 39 120 3 41 12
153 21 248 9 96 12 178 8 182 -8 8 -342 142 -347 139 -1 -1 -78 -21 -172 -46z
m195 0 c0 -10 -9 -126 -20 -258 -11 -132 -20 -245 -20 -251 0 -6 -11 -11 -25
-11 -19 0 -25 5 -25 21 1 69 38 495 44 505 11 18 46 13 46 -6z m-85 -90 c-5
-81 -21 -287 -30 -392 -2 -24 -7 -46 -10 -50 -4 -3 -28 -11 -53 -18 -78 -20
-196 -51 -219 -58 -22 -7 -23 -6 -16 41 3 27 20 150 37 274 l31 225 50 13
c108 29 191 50 203 51 10 1 12 -18 7 -86z m250 37 c70 -28 131 -52 134 -55 4
-2 -3 -109 -16 -237 -12 -128 -22 -241 -23 -251 0 -20 -11 -18 -125 18 -38 12
-89 27 -113 34 -41 12 -42 13 -37 49 8 61 37 435 36 465 -1 15 3 27 7 27 5 0
66 -23 137 -50z m-245 -520 c0 -21 -8 -24 -169 -61 -80 -18 -95 -19 -107 -7
-12 12 5 19 118 50 159 43 158 43 158 18z m175 -21 c61 -17 112 -33 114 -35 2
-2 -4 -10 -13 -19 -15 -15 -25 -13 -128 18 -96 29 -113 38 -116 57 -3 17 0 21
15 17 10 -3 68 -20 128 -38z"/>
<path d="M6241 1334 c-34 -43 -26 -86 20 -109 15 -8 35 -15 44 -15 25 0 65 46
65 75 0 14 -11 37 -25 50 -33 34 -77 33 -104 -1z m54 -13 c7 -12 -12 -24 -25
-16 -11 7 -4 25 10 25 5 0 11 -4 15 -9z m45 -35 c0 -41 -49 -63 -78 -34 -17
17 -15 31 4 24 20 -8 54 11 54 30 0 8 5 12 10 9 6 -3 10 -16 10 -29z"/>
<path d="M6593 1334 c-20 -20 -24 -31 -19 -57 7 -39 40 -68 69 -63 12 3 25 5
30 5 17 2 47 43 47 65 0 13 -9 35 -21 50 -27 35 -71 35 -106 0z m57 -19 c0 -8
-7 -15 -15 -15 -8 0 -15 7 -15 15 0 8 7 15 15 15 8 0 15 -7 15 -15z m40 -23
c0 -15 -5 -33 -12 -40 -25 -25 -78 -8 -78 25 0 10 5 11 18 4 21 -11 52 3 52
24 0 8 5 15 10 15 6 0 10 -13 10 -28z"/>
<path d="M720 1536 c0 -17 26 -39 40 -34 6 2 4 12 -5 26 -18 25 -35 29 -35 8z"/>
<path d="M1108 1513 c-29 -7 -20 -23 13 -23 19 0 29 4 27 12 -5 14 -17 17 -40
11z"/>
<path d="M1033 1499 c-34 -12 -29 -33 4 -24 34 8 39 13 27 24 -5 5 -19 5 -31
0z"/>
<path d="M1170 1500 c0 -14 48 -35 58 -26 8 9 -26 36 -45 36 -7 0 -13 -5 -13
-10z"/>
<path d="M775 1490 c-3 -5 5 -16 17 -24 27 -20 38 -20 38 -3 0 17 -47 40 -55
27z"/>
<path d="M935 1469 c-4 -6 -5 -13 -1 -16 8 -8 56 6 56 17 0 13 -47 13 -55 -1z"/>
<path d="M852 1458 c7 -20 58 -23 58 -4 0 11 -10 16 -31 16 -20 0 -29 -4 -27
-12z"/>
<path d="M1260 1445 c0 -16 27 -32 37 -21 7 7 -16 36 -28 36 -5 0 -9 -7 -9
-15z"/>
<path d="M8992 1379 c-23 -33 -40 -65 -36 -70 6 -10 122 -10 162 0 l23 6 -27
40 c-48 71 -59 84 -69 84 -5 0 -29 -27 -53 -60z m62 -47 c-25 -2 -48 -1 -51 2
-3 3 5 19 18 37 l23 32 28 -34 29 -34 -47 -3z"/>
<path d="M4196 1391 c-4 -5 9 -22 28 -36 35 -27 35 -27 66 -8 30 17 32 17 61
0 30 -16 32 -16 58 2 27 19 28 19 56 1 29 -19 30 -19 60 0 30 18 31 18 55 0
30 -23 40 -25 40 -6 0 8 -15 23 -32 34 -32 21 -33 21 -63 2 -30 -19 -32 -19
-59 0 -28 18 -29 18 -59 0 -30 -18 -31 -18 -57 0 -26 18 -27 18 -56 1 -28 -18
-30 -18 -61 1 -18 11 -34 15 -37 9z"/>
<path d="M5767 1384 c-13 -13 5 -24 36 -24 18 0 42 -7 54 -15 14 -9 24 -11 28
-5 14 23 -97 65 -118 44z"/>
<path d="M747 1252 c-48 -48 -87 -93 -87 -99 0 -7 33 -44 73 -84 l73 -71 -23
-46 c-16 -31 -23 -63 -23 -100 0 -84 19 -131 75 -189 106 -109 259 -108 367 4
49 51 68 99 68 176 0 216 -242 333 -415 201 -69 -52 -48 -12 39 75 l87 88 -66
66 c-37 37 -70 67 -74 67 -3 0 -46 -39 -94 -88z m152 3 l45 -46 -74 -74 c-41
-41 -78 -74 -81 -73 -4 2 -28 23 -54 47 l-47 43 73 74 c41 41 78 74 84 74 5 0
30 -21 54 -45z m214 -202 c49 -20 111 -92 127 -148 61 -216 -206 -387 -371
-238 -77 70 -103 159 -72 248 22 61 50 70 45 13 -3 -27 2 -42 17 -57 27 -27
51 -27 85 0 53 41 18 113 -52 107 -82 -7 -29 62 67 88 50 14 95 10 154 -13z
m-183 -107 c6 -8 10 -25 8 -38 -4 -32 -52 -38 -68 -8 -15 29 -5 37 19 16 11
-10 22 -13 25 -8 3 5 -1 15 -9 22 -8 7 -15 16 -15 21 0 14 26 10 40 -5z"/>
<path d="M1045 855 c-48 -47 -25 -125 42 -141 53 -14 113 46 99 99 -16 66 -95
89 -141 42z m93 -11 c26 -18 30 -65 6 -88 -17 -18 -69 -22 -79 -6 -3 6 1 10 9
10 21 0 45 37 39 61 -3 10 -9 19 -14 19 -5 0 -9 5 -9 10 0 15 22 12 48 -6z
m-50 -37 c2 -12 -3 -17 -17 -17 -12 0 -21 6 -21 13 0 31 32 34 38 4z"/>
<path d="M7535 1314 c-22 -11 -35 -13 -53 -5 -32 15 -74 14 -98 -4 -26 -18
-47 -65 -42 -97 2 -18 -5 -28 -32 -43 -20 -11 -43 -37 -54 -59 -17 -36 -18
-43 -5 -80 8 -24 27 -49 46 -62 l31 -21 -106 -74 c-62 -42 -108 -82 -111 -93
-3 -19 -2 -19 23 -3 49 32 52 27 60 -100 4 -64 9 -120 12 -124 7 -11 207 -132
219 -132 11 0 375 279 387 297 4 6 8 21 8 34 0 19 5 22 40 22 87 0 144 -34
280 -165 104 -101 137 -126 184 -144 79 -29 198 -28 360 4 123 24 269 32 309
16 17 -6 17 -8 3 -20 -32 -27 -10 -101 30 -101 8 0 24 10 35 21 16 16 20 29
16 55 -6 33 -5 34 27 34 43 0 60 -14 115 -95 78 -117 180 -160 272 -116 51 24
222 132 250 156 10 10 82 112 161 227 107 159 149 213 170 220 27 9 38 32 36
69 -1 8 13 36 30 62 45 64 44 109 -4 153 -27 26 -44 34 -72 34 -46 0 -73 -18
-112 -75 -17 -25 -37 -45 -44 -45 -21 0 -46 -35 -44 -61 1 -16 -44 -90 -139
-230 -77 -113 -145 -214 -150 -225 -6 -10 -18 -68 -28 -127 -21 -124 -31 -137
-114 -145 -80 -7 -147 38 -206 142 -38 65 -75 87 -145 85 -30 -1 -71 4 -90 10
-57 18 -162 13 -298 -15 -79 -17 -163 -27 -222 -28 -132 -1 -174 20 -317 163
-116 116 -180 156 -265 167 -45 6 -47 8 -34 23 14 15 13 26 -12 101 -26 79
-29 84 -69 102 -52 23 -60 34 -39 57 41 45 27 119 -27 151 -19 11 -39 32 -45
46 -7 14 -28 32 -47 40 -42 17 -43 17 -80 -2z m-57 -34 c32 -20 32 -20 52 0
11 11 32 20 47 20 31 0 73 -35 73 -62 0 -10 6 -18 14 -18 7 0 25 -9 40 -21 32
-25 36 -77 7 -103 -15 -13 -18 -26 -14 -51 7 -43 -23 -75 -71 -75 -35 0 -55
13 -36 25 22 14 8 23 -27 18 -47 -7 -53 -12 -30 -24 42 -24 -5 -99 -63 -99
-33 0 -80 38 -80 65 0 10 -10 15 -31 15 -41 0 -89 47 -89 88 0 42 44 92 80 92
33 0 48 16 31 33 -29 29 -6 93 39 110 23 8 23 8 58 -13z m2638 -154 c19 -19
34 -42 34 -52 0 -17 -57 -114 -68 -114 -13 0 -132 83 -132 92 0 6 8 7 18 3 9
-4 22 -8 29 -8 7 0 14 -6 17 -14 3 -7 10 -13 16 -13 20 0 10 18 -24 40 -33 23
-33 24 -17 51 32 57 80 62 127 15z m-115 -148 c79 -54 88 -65 68 -85 -9 -9
-33 3 -95 44 -78 52 -94 70 -77 86 12 13 26 7 104 -45z m-2247 26 c24 -9 20
-19 -21 -47 -21 -14 -57 -39 -80 -57 l-43 -32 0 36 c0 32 3 36 26 36 16 0 37
12 57 34 35 37 39 39 61 30z m62 -86 c9 -29 19 -58 21 -64 4 -10 -291 -248
-321 -260 -6 -2 -25 23 -43 59 -31 63 -31 63 -10 76 17 11 22 11 32 -3 18 -24
25 -20 23 13 -3 26 8 37 136 130 76 56 140 101 142 101 1 0 10 -24 20 -52z
m2092 34 c9 -7 -25 -64 -129 -218 -78 -115 -143 -211 -145 -213 -2 -2 -10 2
-18 8 -13 11 5 43 127 222 77 115 144 209 147 209 3 0 11 -4 18 -8z m-2327
-60 l3 -42 -78 -56 -78 -57 -36 17 c-21 10 -66 33 -100 53 l-64 35 67 45 68
45 21 -25 c25 -30 57 -47 87 -47 30 0 87 37 94 61 9 28 13 21 16 -29z m2382
22 c3 -3 -45 -81 -107 -172 -163 -242 -170 -251 -184 -252 -21 0 -6 34 50 114
175 251 208 301 208 308 0 9 24 11 33 2z m57 -43 c0 -14 -276 -415 -288 -419
-35 -11 -16 36 54 139 188 277 204 298 219 293 8 -4 15 -9 15 -13z m-2700
-108 l90 -48 0 -127 c0 -71 -3 -128 -6 -128 -11 0 -174 101 -175 108 -7 56
-12 242 -6 242 4 0 48 -21 97 -47z m470 -16 c0 -17 -37 -51 -161 -147 -89 -69
-168 -129 -175 -133 -12 -7 -14 10 -13 90 l0 98 27 -52 c14 -29 29 -53 33 -53
3 0 68 49 145 109 76 61 140 110 142 110 1 1 2 -9 2 -22z m1887 -291 c18 -12
33 -24 33 -28 0 -3 -23 -20 -52 -36 -41 -24 -56 -28 -71 -20 -16 8 -18 17 -12
56 11 84 13 86 43 66 15 -10 42 -27 59 -38z m-629 -37 c-3 -27 -33 -38 -41
-16 -8 20 22 62 35 49 5 -5 8 -20 6 -33z"/>
<path d="M7490 1231 c0 -5 11 -16 24 -25 14 -8 27 -25 31 -36 9 -29 28 -25 21
5 -9 35 18 33 56 -5 35 -35 38 -36 38 -12 0 32 -42 62 -88 62 -22 0 -44 5 -47
10 -8 12 -35 13 -35 1z"/>
<path d="M7330 1113 c-23 -29 -24 -83 -3 -90 8 -3 12 7 11 31 -1 22 6 44 16
55 10 11 13 21 7 25 -5 3 -19 -6 -31 -21z"/>
<path d="M7650 1100 c0 -11 5 -20 10 -20 6 0 10 9 10 20 0 11 -4 20 -10 20 -5
0 -10 -9 -10 -20z"/>
<path d="M7346 1012 c-3 -6 -1 -14 5 -17 15 -10 25 3 12 16 -7 7 -13 7 -17 1z"/>
<path d="M5749 1307 c-22 -17 -39 -51 -39 -81 0 -19 -7 -27 -36 -36 -37 -12
-67 -59 -57 -87 3 -7 -5 -33 -17 -58 -26 -54 -18 -90 32 -142 55 -57 76 -41
57 42 -15 66 -12 71 80 125 79 47 103 78 109 141 4 43 1 51 -26 79 -32 32 -74
39 -103 17z m83 -34 c22 -20 24 -73 3 -113 -9 -18 -43 -45 -85 -70 -90 -53
-106 -76 -92 -132 13 -49 8 -60 -13 -32 -39 49 -40 102 -3 128 16 12 18 18 8
35 -26 50 28 98 75 67 33 -21 42 -14 27 19 -36 79 22 150 80 98z"/>
<path d="M5890 1303 c0 -5 4 -15 10 -23 11 -18 25 -7 17 15 -6 15 -27 21 -27
8z"/>
<path d="M9328 1213 c-9 -2 -35 -29 -58 -60 -46 -61 -43 -60 -143 -29 -47 15
-49 15 -73 -9 -13 -13 -24 -28 -24 -33 0 -5 18 -36 40 -68 22 -33 40 -62 40
-66 0 -4 -18 -33 -40 -64 -47 -67 -49 -87 -15 -110 24 -16 30 -16 93 4 l67 21
20 -24 c11 -12 33 -39 48 -59 30 -39 65 -47 91 -20 12 11 16 35 16 85 0 47 4
71 13 74 135 47 159 66 139 110 -7 16 -30 29 -76 45 -72 24 -77 31 -72 105 5
70 -21 108 -66 98z m30 -35 c7 -7 12 -40 12 -77 0 -37 4 -71 8 -78 4 -7 37
-22 72 -35 50 -18 65 -28 65 -43 0 -15 -15 -25 -65 -43 -36 -12 -71 -30 -77
-39 -8 -10 -13 -46 -13 -84 0 -83 -17 -95 -57 -42 -16 20 -40 49 -55 65 -26
28 -26 28 -75 13 -123 -39 -137 -27 -74 63 23 32 41 64 41 71 0 7 -19 40 -42
73 -40 56 -41 61 -24 73 15 11 27 10 73 -6 31 -10 64 -19 74 -19 10 0 38 26
64 60 49 64 54 67 73 48z"/>
<path d="M9177 1032 c-10 -10 -17 -28 -17 -40 0 -23 36 -62 57 -62 21 0 53 38
53 63 0 49 -61 74 -93 39z m63 -58 c-7 -7 -17 -14 -23 -14 -7 0 -7 4 1 12 7 7
12 21 12 33 1 19 1 19 11 2 8 -13 7 -22 -1 -33z"/>
<path d="M9302 974 c-41 -28 -18 -104 31 -104 23 0 57 36 57 60 0 22 -33 60
-53 60 -7 0 -23 -7 -35 -16z m56 -50 c-2 -10 -12 -20 -23 -23 -20 -3 -20 -3
-2 17 11 12 16 26 12 34 -6 10 -5 10 4 2 7 -7 11 -20 9 -30z"/>
<path d="M9272 843 c-20 -7 -3 -23 24 -23 15 0 24 5 22 12 -4 12 -26 18 -46
11z"/>
<path d="M2681 1077 c-28 -14 -65 -77 -52 -90 13 -13 69 -12 95 2 28 16 60 67
52 87 -7 17 -62 18 -95 1z m63 -16 c9 -14 -26 -50 -56 -57 -21 -4 -28 -2 -28
8 0 31 70 72 84 49z"/>
<path d="M4674 1056 c-130 -48 -220 -121 -271 -218 -23 -44 -28 -66 -28 -128
0 -64 4 -82 28 -122 63 -108 198 -157 302 -109 51 23 101 79 116 132 11 37 10
49 -11 110 -19 56 -21 71 -10 84 21 25 53 17 104 -25 62 -52 95 -53 143 -5 34
34 35 38 31 90 -8 92 -85 177 -188 205 -59 17 -150 11 -216 -14z m251 -30 c51
-23 100 -71 116 -113 15 -40 -20 -103 -58 -103 -5 0 -33 16 -63 35 -73 47
-110 47 -157 0 -34 -34 -35 -37 -28 -88 4 -28 7 -71 7 -95 0 -27 5 -42 12 -39
16 5 19 63 7 114 -8 29 -8 49 -2 61 9 14 10 11 11 -16 0 -18 7 -49 15 -69 8
-19 15 -46 15 -58 0 -65 -70 -148 -135 -161 -38 -7 -112 1 -134 15 -8 5 9 7
41 5 80 -4 194 52 173 86 -5 8 -14 5 -29 -9 -54 -51 -149 -65 -214 -32 -201
103 -85 389 193 477 68 22 173 17 230 -10z m85 -233 c33 17 40 12 13 -9 -27
-21 -59 -17 -90 11 l-28 26 37 -22 c35 -19 40 -20 68 -6z"/>
<path d="M4870 1010 c0 -5 6 -10 14 -10 7 0 25 -9 39 -20 18 -14 28 -17 33 -9
4 7 -3 20 -17 30 -26 20 -69 25 -69 9z"/>
<path d="M4742 998 c-16 -16 -15 -33 4 -52 21 -22 51 -20 64 4 22 42 -34 82
-68 48z m43 -38 c-5 -8 -11 -8 -17 -2 -6 6 -7 16 -3 22 5 8 11 8 17 2 6 -6 7
-16 3 -22z"/>
<path d="M4620 952 c-24 -19 -19 -46 11 -63 37 -19 75 22 51 57 -14 20 -41 23
-62 6z m41 -27 c-1 -15 -24 -12 -29 3 -3 9 2 13 12 10 10 -1 17 -7 17 -13z"/>
<path d="M4962 948 c6 -18 28 -21 28 -4 0 9 -7 16 -16 16 -9 0 -14 -5 -12 -12z"/>
<path d="M4515 837 c-13 -10 -16 -21 -11 -41 6 -24 11 -27 39 -24 25 2 33 8
35 27 3 15 -3 30 -14 38 -22 16 -26 16 -49 0z m40 -26 c7 -12 -12 -24 -25 -16
-11 7 -4 25 10 25 5 0 11 -4 15 -9z"/>
<path d="M4482 698 c-29 -29 -2 -72 40 -66 42 6 32 78 -11 78 -9 0 -22 -5 -29
-12z m39 -33 c-1 -15 -24 -12 -29 3 -3 9 2 13 12 10 10 -1 17 -7 17 -13z"/>
<path d="M4307 1056 c-8 -8 -29 -51 -47 -95 -19 -48 -36 -78 -43 -74 -6 3 -7
1 -3 -6 4 -6 -24 -88 -63 -181 -61 -146 -77 -175 -115 -210 -46 -43 -73 -110
-61 -153 16 -56 30 -79 57 -93 33 -17 56 -10 38 11 -21 25 -7 59 30 77 58 29
82 64 78 112 -5 42 15 99 156 458 25 65 46 122 46 127 0 14 -29 41 -45 41 -7
0 -20 -6 -28 -14z m43 -28 c0 -25 -25 -78 -36 -78 -21 0 -23 13 -7 53 14 34
43 52 43 25z m-45 -107 c3 -5 -26 -90 -65 -189 -63 -162 -73 -179 -91 -175
-26 7 -27 5 57 207 63 152 83 183 99 157z m-155 -391 c11 -6 12 -12 4 -20 -13
-13 -44 -2 -44 16 0 16 18 18 40 4z m-25 -52 c30 -13 35 -62 9 -94 -13 -16
-15 -16 -10 -1 14 44 -20 61 -54 27 -11 -11 -20 -15 -20 -10 0 6 -9 14 -21 18
-20 8 -20 9 9 40 33 35 47 38 87 20z m-37 -103 c-6 -14 -15 -25 -19 -25 -5 0
-17 -16 -27 -37 l-19 -36 -11 32 c-9 25 -9 38 0 54 7 14 13 17 16 9 6 -19 36
-14 50 8 17 28 24 25 10 -5z"/>
<path d="M5793 1049 c-41 -26 -69 -93 -54 -132 13 -33 24 -34 45 -3 8 13 33
35 56 47 47 27 58 51 36 84 -20 30 -41 31 -83 4z m65 -26 c-3 -18 -85 -79 -94
-70 -3 2 1 17 8 31 19 43 93 76 86 39z"/>
<path d="M1286 888 c8 -61 10 -66 25 -51 14 14 -2 95 -19 101 -10 3 -11 -8 -6
-50z"/>
<path d="M5424 859 c-42 -52 -54 -255 -20 -319 26 -49 64 -88 111 -113 56 -30
156 -30 205 -1 35 20 36 20 89 3 68 -23 83 -15 110 56 28 75 27 99 -6 123 -25
18 -26 22 -15 46 17 38 16 44 -15 73 -65 60 -256 132 -373 140 -57 4 -78 2
-86 -8z m218 -45 c158 -50 293 -134 215 -134 -13 0 -32 9 -43 21 -44 49 -217
112 -296 108 -47 -3 -83 14 -72 33 10 15 100 2 196 -28z m-174 -37 c89 -56
267 -115 355 -118 26 -1 47 -5 47 -9 0 -13 -72 -126 -98 -153 -59 -62 -154
-83 -230 -51 -86 35 -131 110 -132 214 0 64 9 140 17 140 2 0 20 -10 41 -23z
m130 -7 c75 -19 189 -67 180 -75 -11 -11 -238 63 -262 86 -14 13 -4 11 82 -11z
m316 -196 c7 -18 -27 -116 -45 -127 -9 -5 -28 -2 -53 8 -45 19 -43 30 3 14 44
-15 56 -8 71 46 12 43 12 49 -3 60 -23 16 -21 24 2 18 11 -3 22 -11 25 -19z
m-44 -26 c0 -32 -14 -58 -29 -58 -29 0 -31 11 -9 41 23 31 38 37 38 17z"/>
<path d="M5536 663 c-20 -13 -36 -30 -36 -38 0 -8 16 -48 35 -90 l34 -75 73
46 c40 26 75 48 77 50 2 2 -5 24 -15 50 -18 43 -23 48 -76 64 l-57 18 -35 -25z
m39 -24 c10 -14 1 -21 -19 -13 -9 3 -13 10 -10 15 7 12 21 11 29 -2z m46 -2
c-1 -12 -15 -9 -19 4 -3 6 1 10 8 8 6 -3 11 -8 11 -12z m55 -44 c-3 -3 -13 -3
-22 1 -13 5 -14 9 -3 22 11 14 13 14 22 -1 5 -9 6 -19 3 -22z m-116 -19 c0 -8
-4 -12 -10 -9 -5 3 -10 13 -10 21 0 8 5 12 10 9 6 -3 10 -13 10 -21z m48 7
c12 -7 12 -12 1 -30 -19 -29 -29 -26 -29 9 0 31 6 36 28 21z m45 -36 c-22 -17
-30 -11 -13 10 7 8 17 12 22 9 5 -3 1 -12 -9 -19z"/>
<path d="M8030 863 c0 -5 16 -18 35 -31 34 -21 37 -22 67 -6 29 15 33 15 60 0
26 -16 30 -16 58 1 28 16 32 16 59 0 28 -16 31 -16 59 0 28 16 31 16 57 -1 19
-12 30 -15 37 -8 7 7 0 17 -23 31 -41 25 -48 26 -77 5 -20 -14 -25 -14 -52 3
-29 17 -33 17 -60 1 -28 -16 -32 -16 -60 0 -27 16 -31 16 -57 0 -24 -14 -31
-14 -53 -2 -28 15 -50 18 -50 7z"/>
<path d="M1290 780 c0 -11 4 -20 9 -20 11 0 22 26 14 34 -12 12 -23 5 -23 -14z"/>
<path d="M10313 748 c-30 -34 -34 -55 -19 -92 28 -67 118 -69 152 -4 28 54
-14 118 -76 118 -25 0 -43 -7 -57 -22z m97 -18 c37 -37 14 -100 -37 -100 -28
0 -63 33 -63 60 0 26 34 60 60 60 11 0 29 -9 40 -20z"/>
<path d="M10345 714 c-19 -20 -16 -43 8 -58 34 -22 73 27 47 59 -16 19 -35 19
-55 -1z m35 -24 c0 -5 -4 -10 -10 -10 -5 0 -10 5 -10 10 0 6 5 10 10 10 6 0
10 -4 10 -10z"/>
<path d="M6679 521 c-36 -36 -37 -70 -3 -110 51 -61 144 -26 144 54 0 79 -84
112 -141 56z m108 -27 c15 -24 15 -29 2 -53 -29 -51 -109 -33 -109 24 0 56 76
76 107 29z"/>
<path d="M3709 533 c0 -5 0 -27 1 -51 1 -25 -5 -53 -14 -66 -14 -22 -12 -36 5
-36 16 0 41 89 35 125 -6 30 -24 49 -27 28z"/>
<path d="M6130 488 c0 -7 15 -25 33 -39 l33 -26 29 23 29 23 28 -20 c27 -20
29 -20 58 -2 30 17 32 17 61 0 30 -16 32 -16 58 2 27 19 27 19 58 0 45 -29 51
-5 7 25 l-37 25 -29 -20 -28 -20 -28 20 c-28 19 -29 20 -59 1 -30 -18 -31 -18
-59 0 -27 19 -29 19 -59 0 -30 -18 -31 -18 -55 0 -29 23 -40 25 -40 8z"/>
<path d="M10296 493 c-12 -12 -6 -21 29 -42 33 -19 36 -19 64 -3 29 16 32 16
61 -1 29 -18 31 -18 58 1 26 19 28 19 57 1 28 -18 30 -18 60 1 29 18 31 18 55
0 24 -18 40 -18 40 0 0 4 -15 17 -34 28 -33 20 -35 20 -64 2 -28 -18 -30 -18
-58 0 -27 19 -29 19 -59 1 -29 -18 -31 -18 -59 0 -29 17 -30 17 -58 -2 l-28
-20 -29 20 c-15 11 -31 18 -35 14z"/>
<path d="M1336 388 c-24 -35 -42 -66 -40 -70 7 -11 172 -10 178 0 6 9 -74 131
-86 132 -4 0 -27 -28 -52 -62z m78 -46 c-13 -2 -35 -2 -49 0 l-24 3 21 34 22
33 27 -33 28 -34 -25 -3z"/>
<path d="M4187 336 c-26 -30 -47 -59 -47 -64 0 -19 27 -20 67 -2 75 33 110
111 52 118 -21 2 -35 -8 -72 -52z m50 -13 c-51 -46 -69 -41 -22 7 21 21 43 36
48 33 6 -3 -6 -21 -26 -40z"/>
<path d="M4375 341 c-31 -27 -92 -68 -136 -91 -58 -30 -79 -46 -79 -61 0 -33
28 -33 132 1 164 54 240 120 204 176 -25 37 -57 31 -121 -25z m105 -5 c0 -16
-48 -60 -87 -80 -36 -18 -180 -66 -197 -66 -6 0 23 18 64 40 41 22 101 63 134
90 46 40 61 48 72 39 8 -6 14 -17 14 -23z"/>
<path d="M1590 361 c0 -5 16 -19 36 -30 34 -20 37 -21 65 -4 27 16 31 16 59 0
28 -17 31 -17 56 -1 24 17 28 17 59 0 31 -17 34 -17 59 -1 23 16 30 16 54 4
15 -7 30 -15 35 -17 4 -2 7 3 7 11 0 7 -16 22 -35 33 -33 17 -37 18 -62 2 -26
-15 -29 -15 -56 0 -26 16 -30 16 -58 -1 -29 -16 -32 -16 -60 0 -28 17 -31 17
-60 0 -27 -15 -33 -15 -52 -2 -24 17 -47 20 -47 6z"/>
<path d="M3639 354 c-12 -14 -11 -16 5 -13 11 2 21 10 24 17 5 17 -13 15 -29
-4z"/>
</g>
</svg>
